<?xml version="1.0" standalone="no"?>
<!DOCTYPE svg PUBLIC "-//W3C//DTD SVG 20010904//EN"
 "http://www.w3.org/TR/2001/REC-SVG-20010904/DTD/svg10.dtd">
<svg version="1.0" xmlns="http://www.w3.org/2000/svg"
 width="300.000000pt" height="300.000000pt" viewBox="0 0 300.000000 300.000000"
 preserveAspectRatio="xMidYMid meet">
<metadata>
Created by potrace 1.10, written by Peter Selinger 2001-2011
</metadata>
<g transform="translate(0.000000,300.000000) scale(0.100000,-0.100000)"
fill="#000000" stroke="none">
<path d="M366 2640 c-121 -21 -241 -114 -294 -228 -24 -51 -27 -69 -27 -167 0
-100 3 -115 28 -168 40 -80 112 -151 194 -190 l68 -32 -107 -3 c-60 -1 -108
-6 -108 -10 1 -4 7 -34 15 -67 9 -36 15 -111 15 -186 l0 -125 80 -162 c44 -89
80 -168 80 -176 0 -8 -17 -23 -37 -33 -31 -15 -39 -24 -41 -51 -2 -18 2 -40 9
-48 10 -12 6 -21 -20 -48 l-33 -34 34 -11 c32 -12 32 -13 14 -27 -11 -7 -23
-14 -28 -14 -10 0 -30 -78 -23 -90 8 -13 575 -14 575 -1 0 5 -7 28 -15 51 -19
54 -20 116 -1 123 9 4 37 -21 76 -69 34 -41 65 -74 69 -74 16 0 53 238 49 317
-3 78 -3 78 23 81 22 3 29 -2 38 -29 13 -39 14 -115 1 -192 -5 -32 -6 -72 -3
-89 6 -29 7 -27 39 39 38 78 43 135 19 226 -19 73 -19 96 0 103 40 16 74 -76
84 -231 l7 -100 12 53 c7 29 12 83 12 120 0 127 35 124 52 -4 9 -73 3 -145
-19 -213 -3 -12 -1 -11 11 4 16 19 24 41 46 133 7 27 16 42 27 42 13 0 15 -11
11 -73 -4 -61 -11 -84 -39 -133 -61 -104 -83 -94 201 -94 249 0 249 0 277 24
l28 24 3 207 c3 167 6 206 17 201 56 -21 341 -106 357 -106 19 0 20 5 16 280
-3 321 -2 317 -78 272 -25 -14 -103 -59 -175 -99 l-130 -73 -3 172 c-1 95 -7
177 -11 181 -5 5 -100 9 -210 8 -111 -1 -201 0 -201 2 0 2 29 18 64 36 76 37
147 110 184 189 24 50 27 69 27 157 0 86 -3 105 -22 138 -16 27 -19 39 -10 41
6 2 71 17 142 32 183 40 334 39 461 -2 184 -59 464 -278 536 -418 29 -57 39
-89 103 -343 47 -187 104 -362 141 -433 l23 -45 1 283 0 282 -34 86 c-72 177
-154 290 -306 421 -94 81 -231 183 -270 200 -14 6 -46 21 -72 33 -26 11 -57
22 -70 24 -13 1 -30 6 -38 9 -8 4 -35 8 -60 10 -25 1 -51 6 -58 11 -22 13
-229 17 -312 6 -41 -6 -116 -21 -167 -34 l-92 -23 -53 44 c-71 58 -132 78
-239 78 -78 0 -91 -3 -161 -37 -90 -45 -148 -103 -189 -192 -91 -194 -8 -426
186 -522 l60 -29 -147 -3 c-82 -1 -214 -1 -295 0 l-148 3 58 27 c112 53 185
133 222 247 25 78 18 207 -17 283 -75 163 -256 258 -432 228z m1481 -87 c-4
-3 -7 0 -7 7 0 7 3 10 7 7 3 -4 3 -10 0 -14z m-140 -30 c-4 -3 -10 -3 -14 0
-3 4 0 7 7 7 7 0 10 -3 7 -7z m300 -20 c-4 -3 -7 0 -7 7 0 7 3 10 7 7 3 -4 3
-10 0 -14z m-142 -3 c3 -5 1 -10 -4 -10 -6 0 -11 5 -11 10 0 6 2 10 4 10 3 0
8 -4 11 -10z m265 0 c0 -13 -11 -13 -30 0 -12 8 -11 10 8 10 12 0 22 -4 22
-10z m-403 -37 c-4 -3 -7 0 -7 7 0 7 3 10 7 7 3 -4 3 -10 0 -14z m900 -200
c-4 -3 -7 0 -7 7 0 7 3 10 7 7 3 -4 3 -10 0 -14z m280 -330 c-4 -3 -10 -3 -14
0 -3 4 0 7 7 7 7 0 10 -3 7 -7z m43 -548 c0 -5 -5 -3 -10 5 -5 8 -10 20 -10
25 0 6 5 3 10 -5 5 -8 10 -19 10 -25z"/>
</g>
</svg>
