<?xml version="1.0" standalone="no"?>
<!DOCTYPE svg PUBLIC "-//W3C//DTD SVG 20010904//EN"
 "http://www.w3.org/TR/2001/REC-SVG-20010904/DTD/svg10.dtd">
<svg version="1.0" xmlns="http://www.w3.org/2000/svg"
 width="300.000000pt" height="300.000000pt" viewBox="0 0 300.000000 300.000000"
 preserveAspectRatio="xMidYMid meet">
<metadata>
Created by potrace 1.10, written by Peter Selinger 2001-2011
</metadata>
<g transform="translate(0.000000,300.000000) scale(0.100000,-0.100000)"
fill="#000000" stroke="none">
<path d="M366 2640 c-121 -21 -241 -114 -294 -228 -24 -51 -27 -69 -27 -167 0
-101 2 -115 29 -168 38 -79 117 -157 188 -187 32 -14 58 -29 58 -33 0 -5 -43
-7 -95 -6 -53 1 -98 -1 -101 -3 -2 -3 2 -34 11 -69 9 -39 15 -113 15 -189 l0
-126 80 -163 c44 -89 80 -169 80 -176 0 -7 -17 -22 -37 -32 -31 -15 -39 -24
-41 -51 -2 -18 2 -40 9 -48 10 -12 6 -21 -20 -48 l-33 -34 34 -11 c32 -12 32
-13 14 -27 -11 -7 -23 -14 -28 -14 -10 0 -30 -78 -23 -90 8 -13 575 -14 575
-1 0 5 -7 28 -15 51 -19 54 -20 116 -1 123 9 4 37 -21 77 -69 34 -41 65 -74
68 -74 16 0 53 240 49 317 -3 78 -3 78 23 81 22 3 29 -2 38 -29 14 -40 14
-110 0 -199 -16 -104 0 -119 39 -37 37 75 41 130 17 220 -19 73 -19 96 0 103
40 16 74 -76 84 -231 l7 -100 12 53 c7 29 12 83 12 120 0 127 35 124 52 -4 9
-73 3 -145 -19 -213 -3 -12 -1 -11 11 4 16 19 24 41 46 133 7 27 16 42 26 42
14 0 16 -12 12 -72 -3 -61 -9 -83 -38 -133 -62 -106 -84 -95 200 -95 249 0
249 0 277 24 l28 24 3 207 3 206 22 -7 c208 -67 332 -104 349 -104 19 0 20 5
16 280 -3 315 -4 317 -68 278 -19 -12 -98 -57 -175 -100 l-140 -78 -3 172 c-1
95 -7 177 -11 181 -5 5 -100 9 -210 8 -111 -1 -201 0 -201 2 0 2 29 18 64 36
128 63 207 183 214 326 4 75 -1 103 -33 179 -8 18 -3 19 118 14 110 -5 139
-10 237 -43 131 -44 189 -81 304 -193 139 -135 243 -288 271 -397 10 -41 18
-152 25 -355 13 -394 31 -494 140 -765 51 -128 99 -212 154 -268 54 -55 138
-127 150 -127 3 0 6 117 6 261 l0 261 -71 97 c-134 181 -152 239 -219 675 -32
210 -74 308 -216 501 -92 126 -209 255 -231 255 -7 0 -13 4 -13 10 0 5 -21 21
-46 36 -41 24 -49 26 -68 14 -19 -12 -20 -12 -7 4 8 9 12 18 10 20 -14 10 -92
35 -99 31 -4 -3 -10 2 -13 9 -7 17 -130 56 -176 56 -18 0 -30 4 -27 9 8 12
-72 21 -197 21 l-110 0 -52 40 c-122 94 -272 104 -418 27 -280 -147 -269 -561
18 -703 l60 -29 -147 -3 c-82 -1 -214 -1 -295 0 l-148 3 58 27 c112 53 185
133 222 247 25 78 18 207 -17 283 -75 163 -256 258 -432 228z m1441 -146 c-7
-7 -249 -6 -256 1 -2 3 56 5 129 5 73 0 131 -3 127 -6z m-30 -41 c-4 -3 -7 0
-7 7 0 7 3 10 7 7 3 -4 3 -10 0 -14z m-130 -20 c-4 -3 -10 -3 -14 0 -3 4 0 7
7 7 7 0 10 -3 7 -7z m148 -3 c3 -5 -1 -10 -9 -10 -9 0 -16 5 -16 10 0 6 4 10
9 10 6 0 13 -4 16 -10z m140 -20 c3 -5 -1 -10 -10 -10 -9 0 -13 5 -10 10 3 6
8 10 10 10 2 0 7 -4 10 -10z m92 -22 c14 -2 27 -28 13 -28 -5 0 -12 4 -15 10
-3 5 -20 14 -38 20 -32 10 -32 10 -2 5 17 -3 35 -6 42 -7z m288 -218 c10 -11
16 -20 13 -20 -3 0 -13 9 -23 20 -10 11 -16 20 -13 20 3 0 13 -9 23 -20z m165
-130 c0 -5 -5 -10 -11 -10 -5 0 -7 5 -4 10 3 6 8 10 11 10 2 0 4 -4 4 -10z
m-40 -14 c0 -3 -4 -8 -10 -11 -5 -3 -10 -1 -10 4 0 6 5 11 10 11 6 0 10 -2 10
-4z m235 -376 c3 -5 1 -10 -4 -10 -6 0 -11 5 -11 10 0 6 2 10 4 10 3 0 8 -4
11 -10z m-76 -553 c1 -10 -3 -15 -9 -12 -5 3 -10 21 -9 38 0 27 2 29 9 12 5
-11 9 -28 9 -38z m169 16 c-10 -2 -26 -2 -35 0 -10 3 -2 5 17 5 19 0 27 -2 18
-5z"/>
</g>
</svg>
