<?xml version="1.0" standalone="no"?>
<!DOCTYPE svg PUBLIC "-//W3C//DTD SVG 20010904//EN"
 "http://www.w3.org/TR/2001/REC-SVG-20010904/DTD/svg10.dtd">
<svg version="1.0" xmlns="http://www.w3.org/2000/svg"
 width="300.000000pt" height="300.000000pt" viewBox="0 0 300.000000 300.000000"
 preserveAspectRatio="xMidYMid meet">
<metadata>
Created by potrace 1.10, written by Peter Selinger 2001-2011
</metadata>
<g transform="translate(0.000000,300.000000) scale(0.100000,-0.100000)"
fill="#000000" stroke="none">
<path d="M366 2640 c-121 -21 -241 -114 -294 -228 -24 -51 -27 -69 -27 -167 0
-101 2 -115 29 -168 38 -79 117 -157 188 -187 32 -14 58 -29 58 -33 0 -5 -43
-7 -95 -6 -53 1 -98 -1 -101 -3 -2 -3 2 -34 11 -69 9 -39 15 -113 15 -189 l0
-126 80 -163 c44 -89 80 -169 80 -176 0 -7 -17 -22 -37 -32 -31 -15 -39 -24
-41 -51 -2 -18 2 -40 9 -48 10 -12 6 -21 -20 -48 l-33 -34 34 -11 c32 -12 32
-13 14 -27 -11 -7 -23 -14 -28 -14 -10 0 -30 -78 -23 -90 8 -13 575 -14 575
-1 0 5 -7 28 -15 51 -19 54 -20 116 -1 123 9 4 37 -21 77 -69 34 -41 65 -74
68 -74 16 0 53 240 49 317 -3 78 -3 78 23 81 22 3 29 -2 38 -29 14 -40 14
-110 0 -199 -16 -104 0 -119 39 -37 37 75 41 130 17 220 -19 73 -19 96 0 103
40 16 74 -76 84 -231 l7 -100 12 53 c7 29 12 83 12 120 0 127 35 124 52 -4 9
-73 3 -145 -19 -213 -3 -12 -1 -11 11 4 16 19 24 41 46 133 7 27 16 42 26 42
14 0 16 -12 12 -72 -3 -61 -9 -83 -38 -133 -62 -106 -84 -95 200 -95 249 0
249 0 277 24 l28 24 3 207 3 206 22 -7 c208 -67 332 -104 349 -104 19 0 20 5
16 280 -3 315 -4 317 -68 278 -19 -12 -98 -57 -175 -100 l-140 -78 -3 172 c-1
95 -7 177 -11 181 -5 5 -100 9 -210 8 -111 -1 -201 0 -201 2 0 2 29 18 64 36
77 37 147 110 184 189 23 48 27 71 27 147 0 50 -4 104 -8 121 l-8 31 103 11
c223 24 220 24 339 -3 63 -14 141 -39 174 -55 171 -84 407 -320 462 -460 20
-50 52 -223 68 -360 27 -236 85 -445 173 -620 l67 -135 3 285 3 285 -30 100
c-17 55 -46 159 -66 230 -59 214 -112 308 -272 479 -151 161 -226 222 -342
276 -34 16 -47 18 -57 9 -12 -9 -13 -9 -9 3 5 11 -6 18 -42 27 -26 7 -57 17
-68 22 -71 32 -294 46 -455 29 l-120 -13 -48 47 c-117 116 -288 137 -445 54
-280 -149 -269 -562 18 -704 l60 -29 -147 -3 c-82 -1 -214 -1 -295 0 l-148 3
58 27 c112 53 185 133 222 247 25 78 18 207 -17 283 -75 163 -256 258 -432
228z m1511 -146 c-3 -3 -12 -4 -19 -1 -8 3 -5 6 6 6 11 1 17 -2 13 -5z m-152
-14 c3 -5 -1 -10 -10 -10 -9 0 -13 5 -10 10 3 6 8 10 10 10 2 0 7 -4 10 -10z
m62 3 c-4 -3 -10 -3 -14 0 -3 4 0 7 7 7 7 0 10 -3 7 -7z m93 -53 c0 -5 -4 -10
-10 -10 -5 0 -10 5 -10 10 0 6 5 10 10 10 6 0 10 -4 10 -10z m147 -6 c-3 -3
-12 -4 -19 -1 -8 3 -5 6 6 6 11 1 17 -2 13 -5z m-280 -10 c-3 -3 -12 -4 -19
-1 -8 3 -5 6 6 6 11 1 17 -2 13 -5z m389 -7 c10 -10 -17 -8 -41 3 -17 8 -16 9
7 7 15 -2 30 -6 34 -10z m434 -307 c0 -5 -2 -10 -4 -10 -3 0 -8 5 -11 10 -3 6
-1 10 4 10 6 0 11 -4 11 -10z m270 -890 c0 -13 -1 -13 -10 0 -5 8 -10 22 -10
30 0 13 1 13 10 0 5 -8 10 -22 10 -30z"/>
</g>
</svg>
