<?xml version="1.0" standalone="no"?>
<!DOCTYPE svg PUBLIC "-//W3C//DTD SVG 20010904//EN"
 "http://www.w3.org/TR/2001/REC-SVG-20010904/DTD/svg10.dtd">
<svg version="1.0" xmlns="http://www.w3.org/2000/svg"
 width="300.000000pt" height="300.000000pt" viewBox="0 0 300.000000 300.000000"
 preserveAspectRatio="xMidYMid meet">
<metadata>
Created by potrace 1.10, written by Peter Selinger 2001-2011
</metadata>
<g transform="translate(0.000000,300.000000) scale(0.100000,-0.100000)"
fill="#000000" stroke="none">
<path d="M366 2640 c-121 -21 -241 -114 -294 -228 -24 -51 -27 -69 -27 -167 0
-100 3 -115 28 -168 40 -80 112 -151 194 -190 l68 -32 -107 -3 c-60 -1 -108
-6 -108 -10 1 -4 7 -34 15 -67 9 -36 15 -111 15 -186 l0 -125 80 -162 c44 -89
80 -168 80 -176 0 -8 -17 -23 -37 -33 -31 -15 -39 -24 -41 -51 -2 -18 2 -40 9
-48 10 -12 6 -21 -20 -48 l-33 -34 34 -11 c32 -12 32 -13 14 -27 -11 -7 -23
-14 -28 -14 -10 0 -30 -78 -23 -90 8 -13 575 -14 575 -1 0 5 -7 28 -15 51 -19
54 -20 116 -1 123 9 4 37 -21 77 -69 34 -41 65 -74 68 -74 16 0 53 240 49 317
-3 78 -3 78 23 81 22 3 29 -2 38 -29 14 -40 14 -115 1 -194 -6 -33 -7 -73 -4
-89 6 -28 8 -26 40 40 38 79 43 136 19 227 -19 73 -19 96 0 103 41 16 75 -79
83 -231 5 -98 6 -99 18 -60 7 22 13 76 13 120 2 138 36 144 53 9 9 -73 3 -145
-19 -213 -3 -12 -1 -11 11 4 16 19 24 41 46 133 7 27 16 42 27 42 13 0 15 -11
11 -73 -4 -61 -11 -84 -39 -133 -61 -104 -83 -94 201 -94 249 0 249 0 277 24
l28 24 3 207 3 206 22 -7 c208 -67 332 -104 349 -104 19 0 20 5 16 280 -3 321
-2 317 -78 272 -25 -14 -103 -59 -175 -99 l-130 -73 -3 172 c-1 95 -7 177 -11
181 -5 5 -100 9 -210 8 -111 -1 -201 0 -201 2 0 2 29 18 64 36 77 37 147 110
184 189 23 48 27 71 27 147 0 50 -4 104 -8 121 l-8 31 103 11 c212 23 224 23
296 7 38 -9 81 -18 94 -19 168 -23 512 -319 585 -506 20 -50 52 -223 68 -360
27 -236 85 -445 173 -620 l67 -135 3 290 2 289 -29 91 c-16 49 -37 122 -46
160 -42 174 -83 278 -153 384 -71 107 -317 355 -389 391 -15 8 -38 22 -50 30
-11 9 -61 29 -110 45 -48 15 -97 32 -108 37 -75 31 -296 45 -455 28 l-120 -13
-48 47 c-117 116 -288 137 -445 54 -72 -39 -130 -102 -168 -182 -91 -194 -8
-426 186 -522 l60 -29 -147 -3 c-82 -1 -214 -1 -295 0 l-148 3 58 27 c112 53
185 133 222 247 25 78 18 207 -17 283 -75 163 -256 258 -432 228z m1511 -146
c-3 -3 -12 -4 -19 -1 -8 3 -5 6 6 6 11 1 17 -2 13 -5z m-152 -14 c3 -5 -1 -10
-10 -10 -9 0 -13 5 -10 10 3 6 8 10 10 10 2 0 7 -4 10 -10z m72 4 c-3 -3 -12
-4 -19 -1 -8 3 -5 6 6 6 11 1 17 -2 13 -5z m83 -54 c0 -5 -4 -10 -10 -10 -5 0
-10 5 -10 10 0 6 5 10 10 10 6 0 10 -4 10 -10z m137 -7 c-4 -3 -10 -3 -14 0
-3 4 0 7 7 7 7 0 10 -3 7 -7z m-270 -9 c-3 -3 -12 -4 -19 -1 -8 3 -5 6 6 6 11
1 17 -2 13 -5z m389 -7 c10 -10 -17 -8 -41 3 -17 8 -16 9 7 7 15 -2 30 -6 34
-10z m-449 -4 c-4 -3 -10 -3 -14 0 -3 4 0 7 7 7 7 0 10 -3 7 -7z m883 -303 c0
-5 -2 -10 -4 -10 -3 0 -8 5 -11 10 -3 6 -1 10 4 10 6 0 11 -4 11 -10z m270
-890 c0 -13 -1 -13 -10 0 -5 8 -10 22 -10 30 0 13 1 13 10 0 5 -8 10 -22 10
-30z"/>
</g>
</svg>
