<?xml version="1.0" standalone="no"?>
<!DOCTYPE svg PUBLIC "-//W3C//DTD SVG 20010904//EN"
 "http://www.w3.org/TR/2001/REC-SVG-20010904/DTD/svg10.dtd">
<svg version="1.0" xmlns="http://www.w3.org/2000/svg"
 width="300.000000pt" height="300.000000pt" viewBox="0 0 300.000000 300.000000"
 preserveAspectRatio="xMidYMid meet">
<metadata>
Created by potrace 1.10, written by Peter Selinger 2001-2011
</metadata>
<g transform="translate(0.000000,300.000000) scale(0.100000,-0.100000)"
fill="#000000" stroke="none">
<path d="M1905 2708 c-119 -11 -222 -37 -340 -87 l-113 -48 -29 18 c-16 10
-58 26 -93 35 -93 24 -176 14 -266 -31 -295 -145 -295 -565 1 -711 l60 -29
-148 -3 c-81 -1 -213 -1 -295 0 l-147 3 58 27 c112 53 185 133 222 247 26 78
18 207 -17 283 -73 158 -253 256 -421 228 -131 -21 -242 -102 -300 -219 -30
-62 -32 -72 -32 -176 0 -100 3 -115 28 -168 40 -80 112 -151 194 -190 l68 -32
-107 -3 c-60 -1 -108 -6 -108 -10 1 -4 7 -34 15 -67 9 -36 15 -111 15 -186 l0
-125 80 -162 c44 -89 80 -168 80 -176 0 -8 -17 -23 -37 -33 -31 -15 -39 -24
-41 -51 -2 -18 2 -40 9 -48 10 -12 6 -21 -20 -48 l-33 -34 34 -11 c32 -12 32
-13 14 -27 -11 -7 -23 -14 -28 -14 -10 0 -30 -78 -23 -90 8 -13 575 -14 575
-1 0 5 -7 28 -15 51 -19 54 -20 116 -1 123 9 4 37 -21 76 -69 34 -41 65 -74
69 -74 16 0 53 238 49 317 -3 78 -3 78 23 81 22 3 29 -2 38 -29 14 -40 14
-114 1 -195 -6 -35 -6 -72 -2 -84 8 -20 12 -16 40 43 37 75 41 129 17 220 -19
73 -19 96 0 103 40 16 74 -76 84 -231 l7 -100 12 53 c7 29 12 83 12 120 0 127
35 124 52 -4 9 -73 3 -145 -19 -213 -3 -12 -1 -11 11 4 16 19 24 41 46 133 7
27 16 42 27 42 13 0 15 -11 11 -73 -4 -61 -11 -84 -39 -133 -61 -104 -83 -94
201 -94 249 0 249 0 277 24 l28 24 3 207 3 206 22 -7 c208 -67 332 -104 349
-104 19 0 20 5 16 280 -3 321 -2 317 -78 272 -25 -14 -103 -59 -175 -99 l-130
-73 -3 172 c-1 95 -7 177 -11 181 -5 5 -100 9 -210 8 -111 -1 -201 0 -201 2 0
2 29 18 64 36 76 37 147 110 184 189 24 50 27 69 27 157 0 99 -1 101 -42 176
l-42 75 112 47 c165 67 191 74 313 82 87 6 126 4 182 -9 214 -49 482 -202 573
-328 21 -29 39 -57 39 -62 0 -5 15 -38 34 -75 18 -36 48 -100 66 -141 18 -41
52 -115 76 -165 l45 -89 -62 -161 c-34 -88 -84 -214 -111 -280 -27 -66 -71
-178 -98 -250 -78 -208 -100 -256 -146 -319 -24 -33 -44 -56 -44 -51 0 4 -26
-16 -57 -46 -85 -80 -113 -99 -268 -179 -77 -39 -145 -78 -152 -87 -15 -19 -8
-36 38 -98 21 -27 66 -93 101 -145 51 -77 69 -96 91 -98 49 -6 114 52 368 328
146 159 184 207 298 378 l61 91 0 647 0 647 -66 99 c-97 147 -183 217 -449
370 -59 35 -161 80 -210 93 -27 8 -59 17 -70 20 -31 8 -222 11 -300 3z m-158
-45 c-4 -3 -10 -3 -14 0 -3 4 0 7 7 7 7 0 10 -3 7 -7z m283 -13 c0 -5 -2 -10
-4 -10 -3 0 -8 5 -11 10 -3 6 -1 10 4 10 6 0 11 -4 11 -10z m-423 -47 c-4 -3
-10 -3 -14 0 -3 4 0 7 7 7 7 0 10 -3 7 -7z m160 0 c-4 -3 -10 -3 -14 0 -3 4 0
7 7 7 7 0 10 -3 7 -7z m-231 -28 c-10 -8 -24 -16 -30 -18 -21 -7 13 -35 37
-30 15 4 19 2 12 -4 -5 -6 -23 -13 -40 -17 -20 -4 -25 -3 -16 3 17 11 7 29
-23 41 -21 9 -21 9 0 9 11 1 29 8 40 16 10 8 24 14 29 14 6 0 1 -6 -9 -14z
m111 -22 c-4 -3 -10 -3 -14 0 -3 4 0 7 7 7 7 0 10 -3 7 -7z m1259 -1219 c-8
-21 -15 -34 -15 -28 -1 15 20 76 25 71 2 -2 -2 -21 -10 -43z"/>
</g>
</svg>
