<?xml version="1.0" standalone="no"?>
<!DOCTYPE svg PUBLIC "-//W3C//DTD SVG 20010904//EN"
 "http://www.w3.org/TR/2001/REC-SVG-20010904/DTD/svg10.dtd">
<svg version="1.0" xmlns="http://www.w3.org/2000/svg"
 width="300.000000pt" height="300.000000pt" viewBox="0 0 300.000000 300.000000"
 preserveAspectRatio="xMidYMid meet">
<metadata>
Created by potrace 1.10, written by Peter Selinger 2001-2011
</metadata>
<g transform="translate(0.000000,300.000000) scale(0.100000,-0.100000)"
fill="#000000" stroke="none">
<path d="M1905 2708 c-119 -11 -222 -37 -340 -87 l-113 -48 -29 18 c-16 10
-58 26 -93 35 -93 24 -176 14 -266 -31 -295 -145 -295 -565 1 -711 l60 -29
-148 -3 c-81 -1 -213 -1 -295 0 l-147 3 58 27 c112 53 185 133 222 247 26 78
18 207 -17 283 -73 158 -253 256 -421 228 -131 -21 -242 -102 -300 -219 -30
-62 -32 -72 -32 -176 0 -100 3 -115 28 -168 40 -80 112 -151 194 -190 l68 -32
-107 -3 c-60 -1 -108 -6 -108 -10 1 -4 7 -34 15 -67 9 -36 15 -111 15 -186 l0
-125 80 -162 c44 -89 80 -168 80 -176 0 -8 -17 -23 -37 -33 -31 -15 -39 -24
-41 -51 -2 -18 2 -40 9 -48 10 -12 6 -21 -20 -48 l-33 -34 34 -11 c32 -12 32
-13 14 -27 -11 -7 -23 -14 -28 -14 -10 0 -30 -78 -23 -90 8 -13 575 -14 575
-1 0 5 -7 28 -15 51 -19 54 -20 116 -1 123 9 4 37 -21 76 -69 34 -41 65 -74
69 -74 16 0 53 238 49 317 -3 78 -3 78 23 81 22 3 29 -2 38 -29 13 -39 14
-115 1 -192 -5 -32 -6 -72 -3 -89 6 -29 7 -27 39 39 38 78 43 135 19 226 -19
73 -19 96 0 103 40 16 74 -76 84 -231 l7 -100 12 53 c7 29 12 83 12 120 0 127
35 124 52 -4 9 -73 3 -145 -19 -213 -3 -12 -1 -11 11 4 16 19 24 41 46 133 7
27 16 42 27 42 13 0 15 -11 11 -73 -4 -61 -11 -84 -39 -133 -61 -104 -83 -94
201 -94 249 0 249 0 277 24 l28 24 3 207 3 206 22 -7 c208 -67 332 -104 349
-104 19 0 20 5 16 280 -3 321 -2 317 -78 272 -25 -14 -103 -59 -175 -99 l-130
-73 -3 172 c-1 95 -7 177 -11 181 -5 5 -100 9 -210 8 -111 -1 -201 0 -201 2 0
2 29 18 64 36 76 37 147 110 184 189 24 50 27 69 27 157 0 99 -1 101 -42 176
l-42 75 112 47 c165 67 191 74 313 82 87 6 126 4 182 -9 214 -49 482 -202 573
-328 21 -29 39 -57 39 -62 0 -5 14 -36 31 -70 17 -33 49 -101 71 -151 22 -49
58 -127 81 -171 l40 -82 -33 -93 c-142 -405 -250 -595 -449 -798 -69 -69 -94
-102 -98 -126 -5 -31 -2 -35 51 -69 93 -59 194 -106 229 -106 23 0 41 8 60 27
28 30 182 299 228 400 l29 63 0 541 0 542 -66 99 c-97 147 -183 217 -449 370
-59 35 -161 80 -210 93 -27 8 -59 17 -70 20 -31 8 -222 11 -300 3z m-158 -45
c-4 -3 -10 -3 -14 0 -3 4 0 7 7 7 7 0 10 -3 7 -7z m283 -13 c0 -5 -2 -10 -4
-10 -3 0 -8 5 -11 10 -3 6 -1 10 4 10 6 0 11 -4 11 -10z m-423 -47 c-4 -3 -10
-3 -14 0 -3 4 0 7 7 7 7 0 10 -3 7 -7z m160 0 c-4 -3 -10 -3 -14 0 -3 4 0 7 7
7 7 0 10 -3 7 -7z m-120 -50 c-4 -3 -10 -3 -14 0 -3 4 0 7 7 7 7 0 10 -3 7 -7z
m1320 -980 c-4 -3 -10 -3 -14 0 -3 4 0 7 7 7 7 0 10 -3 7 -7z m20 -400 c-4 -3
-7 0 -7 7 0 7 3 10 7 7 3 -4 3 -10 0 -14z m-323 -188 c-4 -8 -11 -15 -16 -15
-6 0 -5 6 2 15 7 8 14 15 16 15 2 0 1 -7 -2 -15z m-50 -54 c3 -5 -3 -11 -13
-14 -14 -3 -18 -1 -14 9 6 16 19 18 27 5z"/>
</g>
</svg>
