<?xml version="1.0" standalone="no"?>
<!DOCTYPE svg PUBLIC "-//W3C//DTD SVG 20010904//EN"
 "http://www.w3.org/TR/2001/REC-SVG-20010904/DTD/svg10.dtd">
<svg version="1.0" xmlns="http://www.w3.org/2000/svg"
 width="300.000000pt" height="300.000000pt" viewBox="0 0 300.000000 300.000000"
 preserveAspectRatio="xMidYMid meet">
<metadata>
Created by potrace 1.10, written by Peter Selinger 2001-2011
</metadata>
<g transform="translate(0.000000,300.000000) scale(0.100000,-0.100000)"
fill="#000000" stroke="none">
<path d="M2235 2890 c-158 -21 -395 -96 -380 -121 3 -4 -3 -5 -13 -2 -11 2
-58 -23 -122 -66 -58 -39 -110 -71 -116 -71 -6 0 -17 -7 -24 -14 -6 -8 -34
-22 -62 -32 -50 -16 -50 -16 -101 10 -200 100 -434 22 -532 -178 -99 -200 -19
-434 180 -532 l60 -29 -147 -3 c-82 -1 -214 -1 -295 0 l-148 3 58 27 c112 53
185 133 222 247 26 78 18 207 -17 283 -73 158 -253 256 -421 228 -131 -21
-242 -102 -300 -219 -30 -62 -32 -72 -32 -176 0 -100 3 -115 28 -168 40 -80
112 -151 194 -190 l68 -32 -107 -3 c-60 -1 -108 -6 -108 -10 1 -4 7 -34 15
-67 9 -36 15 -111 15 -186 l0 -125 80 -162 c44 -89 80 -168 80 -176 0 -8 -17
-23 -37 -33 -31 -15 -39 -24 -41 -51 -2 -18 2 -40 9 -48 10 -12 6 -21 -20 -48
l-33 -34 34 -11 c32 -12 32 -13 14 -27 -11 -7 -23 -14 -28 -14 -10 0 -30 -78
-23 -90 8 -13 575 -14 575 -1 0 5 -7 28 -15 51 -19 54 -20 116 -1 123 9 4 37
-21 76 -69 34 -41 65 -74 69 -74 16 0 53 238 49 317 -3 78 -3 78 23 81 22 3
29 -2 38 -29 14 -40 14 -114 1 -195 -6 -35 -6 -72 -2 -84 8 -20 12 -16 40 43
37 75 41 129 17 220 -19 73 -19 96 0 103 40 16 74 -76 84 -231 l7 -100 12 53
c7 29 12 83 12 120 0 127 35 124 52 -4 9 -73 3 -145 -19 -213 -3 -12 -1 -11
11 4 16 19 24 41 46 133 7 27 16 42 27 42 13 0 15 -11 11 -73 -4 -61 -11 -84
-39 -133 -61 -104 -83 -94 201 -94 249 0 249 0 277 24 l28 24 3 207 3 206 22
-7 c208 -67 332 -104 349 -104 19 0 20 5 16 280 -3 321 -2 317 -78 272 -25
-14 -103 -59 -175 -99 l-130 -73 -3 172 c-1 95 -7 177 -11 181 -5 5 -100 9
-210 8 -111 -1 -201 0 -201 3 0 2 25 16 55 30 77 35 149 106 188 185 30 61 32
73 32 166 0 94 -2 103 -33 159 -25 45 -30 61 -21 72 6 8 16 14 21 14 5 0 86
52 180 116 148 101 183 120 272 149 133 43 223 51 350 31 164 -27 275 -60 386
-115 81 -40 127 -78 170 -140 19 -28 39 -50 43 -51 4 0 6 48 5 106 l-3 107
-75 40 c-77 42 -309 127 -415 151 -79 19 -196 26 -270 16z m-338 -187 c-4 -3
-10 -3 -14 0 -3 4 0 7 7 7 7 0 10 -3 7 -7z m-150 -30 c-4 -3 -10 -3 -14 0 -3
4 0 7 7 7 7 0 10 -3 7 -7z m-72 -33 c-3 -5 -11 -10 -16 -10 -6 0 -7 5 -4 10 3
6 11 10 16 10 6 0 7 -4 4 -10z m-62 -35 c-3 -9 -8 -14 -10 -11 -3 3 -2 9 2 15
9 16 15 13 8 -4z m117 -9 c0 -2 -8 -10 -17 -17 -16 -13 -17 -12 -4 4 13 16 21
21 21 13z m-90 -60 c0 -2 -7 -7 -16 -10 -8 -3 -12 -2 -9 4 6 10 25 14 25 6z
m-63 -33 c-4 -3 -10 -3 -14 0 -3 4 0 7 7 7 7 0 10 -3 7 -7z"/>
<path d="M2992 1563 c-5 -27 -306 -524 -412 -682 -42 -64 -101 -145 -129 -181
-80 -100 -223 -241 -303 -299 -233 -167 -431 -282 -552 -321 -21 -7 -71 -27
-110 -46 l-71 -33 434 0 433 -1 102 79 c118 93 246 216 309 299 44 57 126 184
245 379 l62 102 -3 358 c-1 197 -3 353 -5 346z m-732 -1123 c0 -5 -5 -10 -11
-10 -5 0 -7 5 -4 10 3 6 8 10 11 10 2 0 4 -4 4 -10z"/>
</g>
</svg>
