<?xml version="1.0" standalone="no"?>
<!DOCTYPE svg PUBLIC "-//W3C//DTD SVG 20010904//EN"
 "http://www.w3.org/TR/2001/REC-SVG-20010904/DTD/svg10.dtd">
<svg version="1.0" xmlns="http://www.w3.org/2000/svg"
 width="300.000000pt" height="300.000000pt" viewBox="0 0 300.000000 300.000000"
 preserveAspectRatio="xMidYMid meet">
<metadata>
Created by potrace 1.10, written by Peter Selinger 2001-2011
</metadata>
<g transform="translate(0.000000,300.000000) scale(0.100000,-0.100000)"
fill="#000000" stroke="none">
<path d="M0 2645 c0 -327 1 -355 18 -364 12 -6 18 -24 20 -62 4 -71 33 -149
76 -208 43 -59 87 -93 164 -129 l57 -27 -107 -3 c-60 -1 -108 -6 -108 -10 1
-4 7 -34 15 -67 9 -36 15 -111 15 -186 l0 -125 80 -162 c44 -89 80 -168 80
-176 0 -8 -17 -23 -37 -33 -31 -15 -39 -24 -41 -51 -2 -18 2 -40 9 -48 10 -12
6 -21 -20 -48 l-33 -34 34 -11 c32 -12 32 -13 14 -27 -11 -7 -23 -14 -28 -14
-10 0 -30 -78 -23 -90 8 -13 575 -14 575 -1 0 5 -7 28 -15 51 -19 54 -20 116
-1 123 9 4 37 -21 76 -69 34 -41 65 -74 69 -74 16 0 53 238 49 317 -3 78 -3
78 23 81 22 3 29 -2 38 -29 14 -40 14 -114 1 -195 -6 -37 -7 -72 -1 -85 8 -22
11 -18 40 45 35 78 39 130 16 219 -19 73 -19 96 0 103 40 16 74 -76 84 -231
l7 -100 12 53 c7 29 12 83 12 120 0 127 35 124 52 -4 9 -73 3 -145 -19 -213
-3 -12 -1 -11 11 4 16 19 24 41 46 133 7 27 16 42 27 42 13 0 15 -11 11 -73
-4 -61 -11 -84 -39 -133 -61 -104 -83 -94 201 -94 249 0 249 0 277 24 l28 24
3 207 3 206 22 -7 c206 -66 332 -104 348 -104 18 0 19 10 19 239 0 254 -5 327
-25 334 -6 3 -54 -20 -106 -50 -52 -31 -131 -76 -176 -100 l-83 -45 0 176 c0
115 -4 177 -11 182 -6 3 -100 6 -210 5 -109 -1 -199 0 -199 2 0 2 29 18 64 36
76 37 147 110 184 189 24 50 27 69 27 157 l0 100 -45 79 c-78 136 -157 197
-285 219 -50 8 -79 8 -127 -2 -133 -27 -233 -106 -291 -229 -29 -61 -32 -76
-32 -162 0 -86 3 -101 32 -162 39 -83 108 -154 188 -194 l60 -29 -147 -3 c-82
-1 -214 -1 -295 0 l-148 3 58 27 c112 53 185 133 222 247 25 78 18 207 -17
283 -33 71 -98 142 -166 180 l-52 30 45 64 c47 68 54 94 31 113 -8 6 -60 21
-117 32 -180 35 -353 87 -471 143 -30 14 -58 26 -61 26 -4 0 -7 -160 -7 -355z"/>
<path d="M2955 2863 c-52 -7 -218 -66 -278 -100 -33 -18 -61 -33 -63 -33 -10
0 -114 -83 -114 -91 0 -5 -14 -9 -30 -9 -32 0 -90 -25 -90 -38 0 -9 -291 -8
-480 1 -75 3 -120 2 -100 -2 35 -8 35 -8 -12 -10 -34 -1 -47 3 -45 12 2 13
-84 17 -115 4 -29 -11 -22 -58 12 -90 l29 -28 115 7 c99 6 114 9 109 23 -3 12
0 11 11 -3 9 -11 16 -23 16 -27 0 -13 153 -29 283 -29 204 1 224 7 417 136
185 124 174 118 290 154 l85 26 3 52 c2 29 -1 51 -5 51 -4 -1 -21 -4 -38 -6z
m-915 -287 c0 -3 -4 -8 -10 -11 -5 -3 -10 -1 -10 4 0 6 5 11 10 11 6 0 10 -2
10 -4z m167 -13 c-4 -3 -10 -3 -14 0 -3 4 0 7 7 7 7 0 10 -3 7 -7z m-210 -80
c-4 -3 -10 -3 -14 0 -3 4 0 7 7 7 7 0 10 -3 7 -7z"/>
<path d="M2945 968 c-22 -18 -84 -67 -137 -110 -125 -99 -184 -136 -337 -213
-177 -88 -243 -109 -497 -160 -214 -43 -339 -60 -634 -85 -278 -24 -459 -64
-690 -152 -147 -57 -221 -95 -345 -177 l-100 -66 300 -3 c281 -2 302 -1 342
18 76 36 185 60 342 75 86 8 206 22 266 30 61 8 181 19 268 25 87 6 204 20
260 31 132 26 416 119 536 175 51 24 96 44 98 44 11 0 212 105 295 154 l88 51
0 198 c0 108 -3 197 -7 197 -5 -1 -26 -15 -48 -32z m-945 -512 c0 -11 -19 -15
-25 -6 -3 5 1 10 9 10 9 0 16 -2 16 -4z m-163 -23 c-4 -3 -10 -3 -14 0 -3 4 0
7 7 7 7 0 10 -3 7 -7z m-130 -20 c-4 -3 -10 -3 -14 0 -3 4 0 7 7 7 7 0 10 -3
7 -7z m-180 -30 c-4 -3 -10 -3 -14 0 -3 4 0 7 7 7 7 0 10 -3 7 -7z"/>
</g>
</svg>
