<?xml version="1.0" standalone="no"?>
<!DOCTYPE svg PUBLIC "-//W3C//DTD SVG 20010904//EN"
 "http://www.w3.org/TR/2001/REC-SVG-20010904/DTD/svg10.dtd">
<svg version="1.0" xmlns="http://www.w3.org/2000/svg"
 width="300.000000pt" height="300.000000pt" viewBox="0 0 300.000000 300.000000"
 preserveAspectRatio="xMidYMid meet">
<metadata>
Created by potrace 1.10, written by Peter Selinger 2001-2011
</metadata>
<g transform="translate(0.000000,300.000000) scale(0.100000,-0.100000)"
fill="#000000" stroke="none">
<path d="M2370 2913 c-30 -8 -75 -18 -100 -23 -59 -11 -198 -63 -258 -96 -26
-14 -83 -51 -127 -82 -103 -72 -205 -116 -319 -138 l-92 -17 -40 26 c-45 30
-140 57 -199 57 -97 0 -219 -55 -286 -128 -22 -24 -55 -73 -72 -110 -29 -61
-32 -76 -32 -162 0 -86 3 -101 32 -162 39 -83 108 -154 188 -194 l60 -29 -147
-3 c-82 -1 -214 -1 -295 0 l-148 3 58 27 c112 53 185 133 222 247 26 78 18
207 -17 283 -73 158 -253 256 -421 228 -131 -21 -242 -102 -300 -219 -30 -62
-32 -72 -32 -176 0 -100 3 -115 28 -167 41 -83 109 -151 192 -190 l70 -33
-107 -3 c-60 -1 -108 -6 -108 -10 1 -4 7 -34 15 -67 9 -36 15 -111 15 -186 l0
-125 80 -162 c44 -89 80 -168 80 -176 0 -8 -17 -23 -38 -33 -30 -15 -38 -24
-40 -51 -2 -18 2 -40 9 -48 10 -12 6 -21 -20 -48 l-33 -34 34 -11 c32 -12 32
-13 14 -27 -11 -7 -23 -14 -28 -14 -10 0 -30 -78 -23 -90 8 -13 575 -14 575
-1 0 5 -7 28 -15 51 -19 54 -20 116 -1 123 9 4 37 -21 76 -69 34 -41 65 -74
69 -74 16 0 53 238 49 317 -3 78 -3 78 23 81 22 3 29 -2 38 -29 14 -40 14
-114 1 -195 -6 -35 -6 -72 -2 -85 8 -20 12 -15 40 46 36 77 40 129 17 218 -19
73 -19 96 0 103 40 16 74 -76 84 -231 l7 -100 12 53 c7 29 12 83 12 120 0 127
35 124 52 -4 9 -73 3 -145 -19 -213 -3 -12 -1 -11 11 4 16 19 24 41 46 133 7
27 16 42 27 42 13 0 15 -11 11 -73 -4 -61 -11 -84 -39 -133 -61 -104 -83 -94
201 -94 249 0 249 0 277 24 l28 24 3 207 3 206 22 -7 c206 -66 332 -104 348
-104 18 0 19 10 19 239 0 254 -5 327 -25 334 -6 3 -54 -20 -106 -50 -52 -31
-131 -76 -176 -100 l-83 -45 0 176 c0 115 -4 177 -11 182 -6 3 -100 6 -210 5
-109 -1 -199 0 -199 3 0 2 25 16 55 30 77 35 149 106 188 185 30 61 32 73 32
166 0 95 -2 103 -32 156 -18 31 -33 62 -33 68 0 6 19 11 48 11 94 0 189 42
355 154 192 129 250 156 406 187 131 25 414 -24 572 -100 23 -12 46 -21 51
-21 4 0 8 28 8 63 l0 63 -87 28 c-49 15 -106 34 -128 43 -115 42 -309 54 -415
26z m-510 -247 c0 -3 -5 -8 -12 -12 -7 -4 -8 -3 -4 4 7 12 16 16 16 8z m90
-25 c0 -5 -7 -12 -16 -15 -14 -5 -15 -4 -4 9 14 17 20 19 20 6z m-273 -58 c-4
-3 -10 -3 -14 0 -3 4 0 7 7 7 7 0 10 -3 7 -7z m-80 -30 c-4 -3 -10 -3 -14 0
-3 4 0 7 7 7 7 0 10 -3 7 -7z m-44 -10 c-7 -2 -19 -2 -25 0 -7 3 -2 5 12 5 14
0 19 -2 13 -5z m177 -7 c0 -2 -7 -7 -16 -10 -8 -3 -12 -2 -9 4 6 10 25 14 25
6z m-110 -37 c-14 -4 -34 -7 -45 -7 -16 0 -17 1 -2 5 9 2 17 8 17 12 0 5 12 6
28 3 l27 -6 -25 -7z m57 14 c-4 -3 -10 -3 -14 0 -3 4 0 7 7 7 7 0 10 -3 7 -7z"/>
<path d="M2961 1193 c-61 -126 -174 -318 -234 -398 -112 -150 -154 -176 -579
-363 -263 -115 -438 -209 -628 -336 l-135 -91 340 -3 339 -2 36 26 c97 71 389
259 495 319 207 117 287 177 364 272 l41 51 0 296 c-1 163 -2 296 -3 296 -2 0
-18 -30 -36 -67z m-1001 -897 c0 -3 -4 -8 -10 -11 -5 -3 -10 -1 -10 4 0 6 5
11 10 11 6 0 10 -2 10 -4z m370 -40 c0 -3 -5 -8 -12 -12 -7 -4 -8 -3 -4 4 7
12 16 16 16 8z"/>
</g>
</svg>
