<?xml version="1.0" standalone="no"?>
<!DOCTYPE svg PUBLIC "-//W3C//DTD SVG 20010904//EN"
 "http://www.w3.org/TR/2001/REC-SVG-20010904/DTD/svg10.dtd">
<svg version="1.0" xmlns="http://www.w3.org/2000/svg"
 width="300.000000pt" height="300.000000pt" viewBox="0 0 300.000000 300.000000"
 preserveAspectRatio="xMidYMid meet">
<metadata>
Created by potrace 1.10, written by Peter Selinger 2001-2011
</metadata>
<g transform="translate(0.000000,300.000000) scale(0.100000,-0.100000)"
fill="#000000" stroke="none">
<path d="M2685 2879 c-126 -30 -215 -59 -285 -92 -80 -37 -210 -125 -210 -141
0 -7 -16 -13 -40 -13 -25 0 -49 -8 -62 -19 -11 -11 -30 -19 -42 -20 -11 0 -51
-1 -88 -2 -38 -1 -67 -5 -65 -9 3 -12 -6 -13 -105 -12 -62 1 -81 4 -58 8 49 9
-162 33 -262 30 -44 -1 -96 4 -133 14 -72 21 -123 21 -191 3 -123 -33 -212
-108 -267 -224 -29 -61 -32 -76 -32 -162 0 -86 3 -101 32 -162 39 -83 108
-154 188 -194 l60 -29 -147 -3 c-82 -1 -214 -1 -295 0 l-148 3 58 27 c112 53
185 133 222 247 28 85 18 210 -23 293 -145 295 -569 294 -715 -1 -30 -62 -32
-72 -32 -176 0 -100 3 -115 28 -168 40 -80 112 -151 194 -190 l68 -32 -107 -3
c-60 -1 -108 -6 -108 -10 1 -4 7 -34 15 -67 9 -36 15 -111 15 -186 l0 -125 80
-162 c44 -89 80 -168 80 -176 0 -8 -17 -23 -38 -33 -30 -15 -38 -24 -40 -51
-2 -18 2 -40 9 -48 10 -12 6 -21 -20 -48 l-33 -34 34 -11 c32 -12 32 -13 14
-27 -11 -7 -23 -14 -28 -14 -10 0 -30 -78 -23 -90 8 -13 575 -14 575 -1 0 5
-7 28 -15 51 -19 54 -20 116 -1 123 9 4 37 -21 76 -69 34 -41 65 -74 69 -74
16 0 53 238 49 317 -3 78 -3 78 23 81 22 3 29 -2 38 -29 14 -40 14 -114 1
-195 -6 -35 -6 -72 -2 -85 8 -20 12 -15 40 46 36 77 40 129 17 218 -19 73 -19
96 0 103 40 16 74 -76 84 -231 l7 -100 12 53 c7 29 12 83 12 120 0 127 35 124
52 -4 9 -73 3 -145 -19 -213 -3 -12 -1 -11 11 4 16 19 24 41 46 133 7 27 16
42 27 42 13 0 15 -11 11 -73 -4 -61 -11 -84 -39 -133 -61 -104 -83 -94 201
-94 249 0 249 0 277 24 l28 24 3 207 3 206 22 -7 c206 -66 332 -104 348 -104
18 0 19 10 19 239 0 254 -5 327 -25 334 -6 3 -54 -20 -106 -50 -52 -31 -131
-76 -176 -100 l-83 -45 0 176 c0 115 -4 177 -11 182 -6 3 -100 6 -210 5 -109
-1 -199 0 -199 3 0 2 25 16 55 30 77 35 149 106 188 185 30 61 32 73 32 166 0
93 -2 104 -31 155 -50 90 -58 100 -79 102 -11 0 0 4 25 7 51 7 88 2 70 -9 -17
-10 16 -17 150 -31 119 -12 262 -6 339 13 27 7 104 51 196 114 199 134 202
136 325 169 124 33 197 38 303 21 l77 -12 0 61 0 62 -52 7 c-89 10 -179 5
-263 -15z m-1077 -296 c-38 -2 -98 -2 -135 0 -38 2 -7 3 67 3 74 0 105 -1 68
-3z m339 -10 c-4 -3 -10 -3 -14 0 -3 4 0 7 7 7 7 0 10 -3 7 -7z"/>
<path d="M2915 1171 c-44 -31 -123 -87 -175 -123 -52 -36 -160 -116 -239 -177
-79 -62 -176 -131 -215 -154 -119 -69 -322 -157 -424 -183 -190 -48 -459 -93
-687 -114 -386 -35 -591 -70 -730 -125 -33 -13 -97 -38 -142 -54 -93 -34 -162
-68 -245 -119 -56 -34 -58 -36 -58 -78 l0 -44 239 0 c233 0 240 1 293 25 84
39 198 63 378 80 91 8 192 20 225 25 33 6 105 13 160 16 147 7 277 22 390 45
136 27 434 128 546 184 51 26 115 55 144 66 64 24 278 148 475 277 l150 97 0
208 c0 114 -1 207 -2 207 -2 -1 -39 -27 -83 -59z m-395 -365 c0 -3 -5 -8 -12
-12 -7 -4 -8 -3 -4 4 7 12 16 16 16 8z m-333 -203 c-4 -3 -10 -3 -14 0 -3 4 0
7 7 7 7 0 10 -3 7 -7z m-300 -110 c-4 -3 -10 -3 -14 0 -3 4 0 7 7 7 7 0 10 -3
7 -7z m-110 -19 c-3 -3 -12 -4 -19 -1 -8 3 -5 6 6 6 11 1 17 -2 13 -5z m-114
-21 c-7 -2 -21 -2 -30 0 -10 3 -4 5 12 5 17 0 24 -2 18 -5z m-456 -70 c-4 -3
-7 0 -7 7 0 7 3 10 7 7 3 -4 3 -10 0 -14z"/>
</g>
</svg>
