<?xml version="1.0" standalone="no"?>
<!DOCTYPE svg PUBLIC "-//W3C//DTD SVG 20010904//EN"
 "http://www.w3.org/TR/2001/REC-SVG-20010904/DTD/svg10.dtd">
<svg version="1.0" xmlns="http://www.w3.org/2000/svg"
 width="300.000000pt" height="300.000000pt" viewBox="0 0 300.000000 300.000000"
 preserveAspectRatio="xMidYMid meet">
<metadata>
Created by potrace 1.10, written by Peter Selinger 2001-2011
</metadata>
<g transform="translate(0.000000,300.000000) scale(0.100000,-0.100000)"
fill="#000000" stroke="none">
<path d="M0 2768 l0 -232 28 26 c15 14 54 45 87 68 83 60 125 101 125 121 0 9
-17 36 -39 60 -21 24 -42 55 -46 69 -4 14 -21 46 -37 73 -28 44 -32 47 -74 47
l-44 0 0 -232z"/>
<path d="M2830 2854 c-30 -8 -71 -16 -90 -19 -41 -5 -183 -56 -243 -86 -61
-31 -176 -110 -186 -127 -5 -8 -21 -14 -37 -14 -30 0 -84 -23 -84 -36 0 -4
-78 -9 -172 -10 -102 -2 -176 -8 -179 -14 -4 -7 -9 -6 -13 1 -4 6 -4 12 1 12
4 1 -12 5 -37 10 -65 11 -264 11 -295 -1 -21 -8 -33 -5 -63 15 -43 28 -139 55
-197 55 -97 0 -219 -55 -286 -128 -22 -24 -55 -73 -72 -110 -29 -61 -32 -76
-32 -162 0 -86 3 -101 32 -162 39 -83 108 -154 188 -194 l60 -29 -148 -3 c-81
-1 -213 -1 -295 0 l-147 3 58 27 c112 53 185 133 222 247 28 85 18 210 -23
293 -145 295 -569 294 -715 -1 -30 -62 -32 -72 -32 -176 0 -100 3 -115 28
-168 40 -80 112 -151 194 -190 l68 -32 -107 -3 c-60 -1 -108 -6 -108 -10 1 -4
7 -34 15 -67 9 -36 15 -111 15 -186 l0 -125 80 -162 c44 -89 80 -168 80 -176
0 -8 -17 -23 -37 -33 -31 -15 -39 -24 -41 -51 -2 -18 2 -40 9 -48 10 -12 6
-21 -20 -48 l-33 -34 34 -11 c32 -12 32 -13 14 -27 -11 -7 -23 -14 -28 -14
-10 0 -30 -78 -23 -90 8 -13 575 -14 575 -1 0 5 -7 28 -15 51 -19 54 -20 116
-1 123 9 4 37 -21 76 -69 34 -41 65 -74 69 -74 16 0 53 238 49 317 -3 78 -3
78 23 81 22 3 29 -2 38 -29 13 -39 14 -115 1 -192 -5 -32 -6 -72 -3 -89 6 -29
7 -27 39 42 38 82 43 133 19 223 -19 73 -19 96 0 103 40 16 74 -76 84 -231 l7
-100 12 53 c7 29 12 83 12 120 0 127 35 124 52 -4 9 -73 3 -145 -19 -213 -3
-12 -1 -11 11 4 16 19 24 41 46 133 7 27 16 42 27 42 13 0 15 -11 11 -73 -4
-61 -11 -84 -39 -133 -61 -104 -83 -94 201 -94 249 0 249 0 277 24 l28 24 3
207 3 206 22 -7 c206 -66 332 -104 348 -104 18 0 19 10 19 239 0 254 -5 327
-25 334 -6 3 -54 -20 -106 -50 -52 -31 -131 -76 -176 -100 l-83 -45 0 176 c0
115 -4 177 -11 182 -6 3 -100 6 -210 5 -109 -1 -199 0 -199 2 0 2 29 18 64 36
76 37 147 110 184 189 24 50 27 69 27 157 0 94 -2 103 -33 159 -18 32 -30 61
-27 65 10 10 135 17 190 10 l50 -5 -45 -5 c-44 -4 -42 -4 33 -16 102 -17 346
-16 418 0 35 9 84 33 135 67 260 176 264 179 389 216 67 20 113 28 177 28 l88
1 0 58 0 57 -57 -1 c-32 -1 -83 -7 -113 -15z m-1143 -301 c-4 -3 -10 -3 -14 0
-3 4 0 7 7 7 7 0 10 -3 7 -7z m111 0 c-10 -2 -26 -2 -35 0 -10 3 -2 5 17 5 19
0 27 -2 18 -5z m219 -10 c-4 -3 -10 -3 -14 0 -3 4 0 7 7 7 7 0 10 -3 7 -7z
m-10 -80 c-4 -3 -10 -3 -14 0 -3 4 0 7 7 7 7 0 10 -3 7 -7z"/>
<path d="M2875 1032 c-60 -43 -146 -106 -190 -141 -225 -176 -321 -236 -507
-316 -192 -82 -534 -152 -903 -185 -374 -33 -599 -74 -732 -131 -26 -11 -79
-32 -118 -46 -91 -33 -187 -82 -299 -151 l-91 -57 310 -3 c254 -2 316 0 347
12 68 28 166 45 369 66 112 12 206 23 209 25 4 2 51 7 106 10 327 19 454 42
703 126 169 57 348 133 363 154 4 5 8 7 8 2 0 -19 323 161 493 275 l57 39 0
199 c0 110 -3 200 -7 200 -5 -1 -57 -36 -118 -78z m-1065 -596 c0 -2 -7 -6
-15 -10 -8 -3 -15 -1 -15 4 0 6 7 10 15 10 8 0 15 -2 15 -4z m-63 -12 c-3 -3
-12 -4 -19 -1 -8 3 -5 6 6 6 11 1 17 -2 13 -5z m-210 -31 c-4 -3 -10 -3 -14 0
-3 4 0 7 7 7 7 0 10 -3 7 -7z m-200 -30 c-4 -3 -10 -3 -14 0 -3 4 0 7 7 7 7 0
10 -3 7 -7z"/>
</g>
</svg>
