<?xml version="1.0" standalone="no"?>
<!DOCTYPE svg PUBLIC "-//W3C//DTD SVG 20010904//EN"
 "http://www.w3.org/TR/2001/REC-SVG-20010904/DTD/svg10.dtd">
<svg version="1.0" xmlns="http://www.w3.org/2000/svg"
 width="300.000000pt" height="300.000000pt" viewBox="0 0 300.000000 300.000000"
 preserveAspectRatio="xMidYMid meet">
<metadata>
Created by potrace 1.10, written by Peter Selinger 2001-2011
</metadata>
<g transform="translate(0.000000,300.000000) scale(0.100000,-0.100000)"
fill="#000000" stroke="none">
<path d="M2635 2895 c-38 -7 -95 -17 -125 -23 -66 -12 -197 -60 -277 -101 -84
-42 -205 -130 -197 -143 4 -6 -1 -8 -15 -3 -16 5 -45 -4 -97 -30 -56 -28 -88
-37 -124 -37 -28 0 -48 -4 -45 -8 2 -4 -7 -5 -22 -2 -19 4 -24 2 -18 -8 18
-29 -232 12 -285 46 -42 27 -138 54 -195 54 -97 0 -219 -55 -286 -128 -22 -24
-55 -73 -72 -110 -29 -61 -32 -76 -32 -162 0 -86 3 -101 32 -162 39 -83 108
-154 188 -194 l60 -29 -148 -3 c-81 -1 -213 -1 -295 0 l-147 3 58 27 c112 53
185 133 222 247 28 85 18 210 -23 293 -145 295 -569 294 -715 -1 -30 -62 -32
-72 -32 -176 0 -100 3 -115 28 -168 40 -80 112 -151 194 -190 l68 -32 -107 -3
c-60 -1 -108 -6 -108 -10 1 -4 7 -34 15 -67 9 -36 15 -111 15 -186 l0 -125 80
-162 c44 -89 80 -168 80 -176 0 -8 -17 -23 -38 -33 -30 -15 -38 -24 -40 -51
-2 -18 2 -40 9 -48 10 -12 6 -21 -20 -48 l-33 -34 34 -11 c32 -12 32 -13 14
-27 -11 -7 -23 -14 -28 -14 -10 0 -30 -78 -23 -90 8 -13 575 -14 575 -1 0 5
-7 28 -15 51 -19 54 -20 116 -1 123 9 4 37 -21 76 -69 34 -41 65 -74 69 -74
16 0 53 238 49 317 -3 78 -3 78 23 81 22 3 29 -2 38 -29 14 -40 14 -114 1
-195 -6 -35 -6 -72 -2 -85 8 -20 12 -15 40 46 36 77 40 129 17 218 -19 73 -19
96 0 103 40 16 74 -76 84 -231 l7 -100 12 53 c7 29 12 83 12 120 0 127 35 124
52 -4 9 -73 3 -145 -19 -213 -3 -12 -1 -11 11 4 16 19 24 41 46 133 7 27 16
42 27 42 13 0 15 -11 11 -73 -4 -61 -11 -84 -39 -133 -61 -104 -83 -94 201
-94 249 0 249 0 277 24 l28 24 3 207 3 206 22 -7 c206 -66 332 -104 348 -104
18 0 19 10 19 239 0 254 -5 327 -25 334 -6 3 -54 -20 -106 -50 -52 -31 -131
-76 -176 -100 l-83 -45 0 176 c0 115 -4 177 -11 182 -6 3 -100 6 -210 5 -109
-1 -199 0 -199 3 0 2 25 16 55 30 77 35 149 106 188 185 30 61 32 73 32 166 0
86 -3 105 -22 138 -13 21 -23 42 -23 48 0 5 35 9 79 9 89 0 216 20 309 50 42
13 117 56 227 129 91 60 184 116 208 124 175 61 286 70 454 38 62 -12 120 -24
128 -27 12 -5 15 5 15 54 0 59 -1 61 -32 71 -108 33 -238 43 -333 26z m-535
-239 c0 -3 -5 -8 -12 -12 -7 -4 -8 -3 -4 4 7 12 16 16 16 8z m57 -43 c-4 -3
-10 -3 -14 0 -3 4 0 7 7 7 7 0 10 -3 7 -7z m-573 -98 c-4 -8 -7 -15 -9 -15 -2
0 -5 7 -9 15 -3 9 0 15 9 15 9 0 12 -6 9 -15z m223 -42 c-4 -3 -10 -3 -14 0
-3 4 0 7 7 7 7 0 10 -3 7 -7z m-69 -10 c-10 -2 -26 -2 -35 0 -10 3 -2 5 17 5
19 0 27 -2 18 -5z m-125 -10 c-7 -2 -19 -2 -25 0 -7 3 -2 5 12 5 14 0 19 -2
13 -5z"/>
<path d="M2885 918 c-158 -214 -283 -334 -453 -434 -115 -68 -199 -99 -457
-168 -324 -87 -507 -149 -706 -238 l-161 -73 329 -3 329 -2 115 53 c63 30 168
75 234 101 229 91 250 100 269 119 10 11 27 17 37 14 11 -3 17 -1 14 4 -3 4 7
11 22 15 15 4 33 10 38 14 6 4 26 11 45 15 81 16 319 154 429 247 l31 27 -2
229 -3 229 -110 -149z m-398 -485 c-4 -3 -10 -3 -14 0 -3 4 0 7 7 7 7 0 10 -3
7 -7z m-540 -170 c-4 -3 -10 -3 -14 0 -3 4 0 7 7 7 7 0 10 -3 7 -7z m310 -40
c-4 -3 -10 -3 -14 0 -3 4 0 7 7 7 7 0 10 -3 7 -7z m-290 -90 c-4 -3 -7 0 -7 7
0 7 3 10 7 7 3 -4 3 -10 0 -14z"/>
</g>
</svg>
