<?xml version="1.0" standalone="no"?>
<!DOCTYPE svg PUBLIC "-//W3C//DTD SVG 20010904//EN"
 "http://www.w3.org/TR/2001/REC-SVG-20010904/DTD/svg10.dtd">
<svg version="1.0" xmlns="http://www.w3.org/2000/svg"
 width="300.000000pt" height="300.000000pt" viewBox="0 0 300.000000 300.000000"
 preserveAspectRatio="xMidYMid meet">
<metadata>
Created by potrace 1.10, written by Peter Selinger 2001-2011
</metadata>
<g transform="translate(0.000000,300.000000) scale(0.100000,-0.100000)"
fill="#000000" stroke="none">
<path d="M0 2830 l0 -170 38 0 c37 0 220 -35 229 -43 2 -3 -16 -16 -40 -30
-96 -57 -174 -176 -186 -286 -20 -179 67 -338 226 -414 l68 -32 -107 -3 c-60
-1 -108 -6 -108 -10 1 -4 7 -34 15 -67 9 -36 15 -111 15 -186 l0 -125 80 -162
c44 -89 80 -168 80 -176 0 -8 -17 -23 -37 -33 -31 -15 -39 -24 -41 -51 -2 -18
2 -40 9 -48 10 -12 6 -21 -20 -48 l-33 -34 34 -11 c32 -12 32 -13 14 -27 -11
-7 -23 -14 -28 -14 -10 0 -30 -78 -23 -90 8 -13 575 -14 575 -1 0 5 -7 28 -15
51 -19 54 -20 116 -1 123 9 4 37 -21 76 -69 34 -41 65 -74 69 -74 16 0 53 238
49 317 -3 78 -3 78 23 81 22 3 29 -2 38 -29 14 -40 14 -114 1 -195 -6 -37 -7
-72 -1 -85 8 -22 11 -18 40 45 35 78 39 130 16 219 -19 73 -19 96 0 103 40 16
74 -76 84 -231 l7 -100 12 53 c7 29 12 83 12 120 0 127 35 124 52 -4 9 -73 3
-145 -19 -213 -3 -12 -1 -11 11 4 16 19 24 41 46 133 7 27 16 42 27 42 13 0
15 -11 11 -73 -4 -61 -11 -84 -39 -133 -61 -104 -83 -94 201 -94 249 0 249 0
277 24 l28 24 3 207 3 206 22 -7 c206 -66 332 -104 348 -104 18 0 19 8 19 114
l0 115 58 -28 c126 -63 344 -126 390 -114 28 7 105 124 200 303 39 74 98 171
131 215 60 79 61 81 61 147 l0 66 -32 7 c-44 9 -210 97 -273 145 -117 87 -366
301 -469 403 -240 237 -390 360 -579 476 l-67 41 -790 0 -790 0 0 -170z m844
-585 c1 -90 4 -107 33 -167 39 -83 108 -154 188 -194 l60 -29 -148 -3 c-81 -1
-213 -1 -295 0 l-147 3 58 27 c161 76 243 209 236 384 -2 46 0 83 5 81 5 -2 9
-48 10 -102z m261 75 c3 -5 4 -10 1 -10 -3 0 -8 5 -11 10 -3 6 -4 10 -1 10 3
0 8 -4 11 -10z m86 -56 c9 -11 2 -9 -18 6 -18 13 -33 25 -33 27 0 8 38 -17 51
-33z m94 -63 c99 -69 191 -139 205 -157 8 -9 -23 12 -70 48 -47 35 -113 84
-147 107 -35 23 -63 44 -63 47 0 6 11 0 75 -45z m705 16 c0 -2 -17 -19 -37
-38 l-38 -34 34 38 c33 34 41 42 41 34z m-141 -154 c-41 -43 -91 -98 -112
-123 l-39 -45 33 45 c34 45 178 200 187 200 3 0 -28 -35 -69 -77z m-238 -118
c30 -27 111 -95 179 -150 68 -55 138 -113 155 -128 40 -39 -86 57 -144 109
-25 22 -77 66 -116 97 -38 31 -93 78 -121 104 -62 59 -29 36 47 -32z m-106
-57 c19 -13 35 -26 35 -30 0 -5 -43 -8 -97 -8 -53 0 -94 3 -90 6 8 8 99 52
110 53 4 1 23 -9 42 -21z m350 -296 c19 -17 35 -34 35 -37 0 -2 -27 -18 -60
-35 l-60 -30 0 86 0 85 25 -19 c13 -11 40 -33 60 -50z m230 -35 c6 -5 1 -5
-10 1 -11 6 -38 27 -60 47 l-40 37 50 -38 c28 -21 55 -42 60 -47z m36 -24 c13
-16 12 -17 -3 -4 -10 7 -18 15 -18 17 0 8 8 3 21 -13z m40 -30 c13 -16 12 -17
-3 -4 -10 7 -18 15 -18 17 0 8 8 3 21 -13z m44 -33 c3 -5 4 -10 1 -10 -3 0 -8
5 -11 10 -3 6 -4 10 -1 10 3 0 8 -4 11 -10z m60 -40 c3 -5 4 -10 1 -10 -3 0
-8 5 -11 10 -3 6 -4 10 -1 10 3 0 8 -4 11 -10z m52 -27 c-4 -3 -10 -3 -14 0
-3 4 0 7 7 7 7 0 10 -3 7 -7z m283 -67 c0 -3 -5 -8 -12 -12 -7 -4 -8 -3 -4 4
7 12 16 16 16 8z m-93 -13 c-4 -3 -10 -3 -14 0 -3 4 0 7 7 7 7 0 10 -3 7 -7z"/>
<path d="M2930 2693 c-36 -20 -91 -56 -124 -80 -32 -25 -72 -46 -89 -49 -16
-2 -41 -11 -56 -21 -31 -20 -26 -20 -118 -21 l-73 -2 0 -58 c0 -81 15 -89 142
-73 71 9 102 18 133 39 22 15 48 31 57 37 10 5 58 37 107 70 l91 60 0 68 c0
37 -1 67 -2 67 -2 0 -32 -17 -68 -37z"/>
<path d="M2934 692 c-64 -47 -244 -141 -349 -182 -193 -77 -537 -138 -975
-175 -123 -10 -350 -45 -430 -65 -160 -41 -406 -139 -520 -208 l-95 -57 330
-3 c202 -2 355 1 395 7 36 6 135 18 220 26 85 9 180 21 210 27 30 6 71 10 90
9 66 -3 374 29 467 49 137 29 385 113 535 181 73 34 145 66 161 72 l27 11 0
173 c0 95 -3 173 -7 172 -5 0 -31 -17 -59 -37z"/>
</g>
</svg>
