<?xml version="1.0" standalone="no"?>
<!DOCTYPE svg PUBLIC "-//W3C//DTD SVG 20010904//EN"
 "http://www.w3.org/TR/2001/REC-SVG-20010904/DTD/svg10.dtd">
<svg version="1.0" xmlns="http://www.w3.org/2000/svg"
 width="300.000000pt" height="300.000000pt" viewBox="0 0 300.000000 300.000000"
 preserveAspectRatio="xMidYMid meet">
<metadata>
Created by potrace 1.10, written by Peter Selinger 2001-2011
</metadata>
<g transform="translate(0.000000,300.000000) scale(0.100000,-0.100000)"
fill="#000000" stroke="none">
<path d="M0 2765 c0 -129 3 -235 8 -235 4 -1 24 -16 46 -34 l39 -33 -27 -67
c-51 -126 -32 -276 48 -385 43 -59 87 -93 164 -129 l57 -27 -107 -3 c-60 -1
-108 -6 -108 -10 1 -4 7 -34 15 -67 9 -36 15 -111 15 -186 l0 -125 80 -162
c44 -89 80 -168 80 -176 0 -8 -17 -23 -37 -33 -31 -15 -39 -24 -41 -51 -2 -18
2 -40 9 -48 10 -12 6 -21 -20 -48 l-33 -34 34 -11 c32 -12 32 -13 14 -27 -11
-7 -23 -14 -28 -14 -10 0 -30 -78 -23 -90 8 -13 575 -14 575 -1 0 5 -7 28 -15
51 -19 54 -20 116 -1 123 9 4 37 -21 76 -69 34 -41 65 -74 69 -74 16 0 53 238
49 317 -3 78 -3 78 23 81 22 3 29 -2 38 -29 14 -40 14 -114 1 -195 -6 -37 -7
-72 -1 -85 8 -22 11 -18 40 45 35 78 39 130 16 219 -19 73 -19 96 0 103 40 16
74 -76 84 -231 l7 -100 12 53 c7 29 12 83 12 120 0 127 35 124 52 -4 9 -73 3
-145 -19 -213 -3 -12 -1 -11 11 4 16 19 24 41 46 133 7 27 16 42 27 42 13 0
15 -11 11 -73 -4 -61 -11 -84 -39 -133 -61 -104 -83 -94 201 -94 249 0 249 0
277 24 l28 24 3 207 3 206 22 -7 c206 -66 332 -104 348 -104 18 0 19 10 19
239 0 254 -5 327 -25 334 -6 3 -54 -20 -106 -50 -52 -31 -131 -76 -176 -100
l-83 -45 0 176 c0 115 -4 177 -11 182 -6 3 -100 6 -210 5 -109 -1 -199 0 -199
2 0 2 29 18 64 36 76 37 147 110 184 189 24 50 27 69 27 157 0 95 -2 103 -34
160 -68 122 -135 190 -218 219 -22 8 -62 30 -89 49 -27 19 -69 46 -94 60 -47
27 -320 148 -495 219 -55 22 -104 45 -109 49 -6 5 -140 9 -298 9 l-288 0 0
-235z m1275 -205 c3 -5 4 -10 1 -10 -3 0 -8 5 -11 10 -3 6 -4 10 -1 10 3 0 8
-4 11 -10z m60 -50 c16 -16 27 -31 24 -33 -2 -1 -18 12 -36 30 -17 18 -28 33
-24 33 4 0 20 -13 36 -30z m-45 -93 c0 -2 -12 -14 -27 -28 l-28 -24 24 28 c23
25 31 32 31 24z m-87 -92 c-3 -9 -8 -14 -10 -11 -3 3 -2 9 2 15 9 16 15 13 8
-4z m-23 -28 c0 -2 -17 -19 -37 -38 l-38 -34 34 38 c33 34 41 42 41 34z m-70
-80 c0 -2 -19 -21 -42 -42 l-43 -40 40 43 c36 39 45 47 45 39z m-90 -101 c0
-3 -5 -8 -12 -12 -7 -4 -8 -3 -4 4 7 12 16 16 16 8z m-50 -59 c0 -2 -10 -12
-22 -23 l-23 -19 19 23 c18 21 26 27 26 19z m-161 -115 c86 -74 106 -85 130
-72 12 6 21 14 21 18 0 4 7 15 15 26 13 18 15 18 44 -3 16 -12 47 -29 68 -39
l38 -17 -147 -3 c-82 -1 -214 -1 -295 0 l-148 3 65 31 c36 17 83 48 105 67 22
20 42 36 44 37 3 0 30 -22 60 -48z"/>
<path d="M2950 2758 c-136 -58 -306 -161 -294 -179 3 -5 -11 -9 -31 -9 -37 0
-74 -14 -86 -33 -4 -5 -72 -12 -155 -14 -82 -2 -165 -5 -184 -8 -21 -3 -30 -1
-22 4 14 8 -76 21 -148 21 -35 0 -37 -2 -34 -27 2 -16 5 -41 6 -56 0 -15 6
-31 12 -35 20 -13 210 -31 342 -31 209 -1 220 2 426 139 98 65 187 122 198
125 17 5 20 15 20 61 0 58 -5 61 -50 42z m-593 -335 c-4 -3 -10 -3 -14 0 -3 4
0 7 7 7 7 0 10 -3 7 -7z"/>
<path d="M2910 759 c-158 -126 -411 -249 -610 -298 -258 -62 -404 -85 -750
-116 -352 -32 -484 -60 -730 -154 -114 -43 -215 -90 -277 -127 l-98 -59 325
-3 c260 -3 343 0 415 12 50 9 164 23 254 31 90 9 168 18 172 21 4 2 47 7 96 9
352 22 464 41 713 124 177 59 300 111 481 202 l99 49 0 185 c0 102 -3 185 -7
184 -5 0 -42 -27 -83 -60z m-753 -365 c-3 -3 -12 -4 -19 -1 -8 3 -5 6 6 6 11
1 17 -2 13 -5z"/>
</g>
</svg>
