<?xml version="1.0" standalone="no"?>
<!DOCTYPE svg PUBLIC "-//W3C//DTD SVG 20010904//EN"
 "http://www.w3.org/TR/2001/REC-SVG-20010904/DTD/svg10.dtd">
<svg version="1.0" xmlns="http://www.w3.org/2000/svg"
 width="300.000000pt" height="300.000000pt" viewBox="0 0 300.000000 300.000000"
 preserveAspectRatio="xMidYMid meet">
<metadata>
Created by potrace 1.10, written by Peter Selinger 2001-2011
</metadata>
<g transform="translate(0.000000,300.000000) scale(0.100000,-0.100000)"
fill="#000000" stroke="none">
<path d="M0 2891 l0 -109 48 -6 c165 -23 395 -69 557 -111 135 -35 367 -104
374 -111 2 -2 -13 -22 -34 -45 -20 -23 -51 -71 -69 -108 -28 -60 -31 -75 -31
-161 0 -86 3 -101 32 -162 39 -83 108 -154 188 -194 l60 -29 -147 -3 c-82 -1
-214 -1 -295 0 l-148 3 58 27 c112 53 185 133 222 247 28 85 18 210 -23 293
-121 247 -459 298 -646 98 -185 -198 -125 -516 119 -632 l70 -33 -107 -3 c-60
-1 -108 -6 -108 -10 1 -4 7 -34 15 -67 9 -36 15 -111 15 -186 l0 -125 80 -162
c44 -89 80 -168 80 -176 0 -8 -17 -23 -37 -33 -31 -15 -39 -24 -41 -51 -2 -18
2 -40 9 -48 10 -12 6 -21 -20 -48 l-33 -34 34 -11 c32 -12 32 -13 14 -27 -11
-7 -23 -14 -28 -14 -10 0 -30 -78 -23 -90 8 -13 575 -14 575 -1 0 5 -7 28 -15
51 -19 54 -20 116 -1 123 9 4 37 -21 76 -69 34 -41 65 -74 69 -74 16 0 53 238
49 317 -3 78 -3 78 23 81 22 3 29 -2 38 -29 14 -40 14 -114 1 -195 -6 -37 -7
-72 -1 -85 8 -22 11 -18 40 45 35 78 39 130 16 219 -19 73 -19 96 0 103 40 16
74 -76 84 -231 l7 -100 12 53 c7 29 12 83 12 120 0 127 35 124 52 -4 9 -73 3
-145 -19 -213 -3 -12 -1 -11 11 4 16 19 24 41 46 133 7 27 16 42 27 42 13 0
15 -11 11 -73 -4 -61 -11 -84 -39 -133 -61 -104 -83 -94 201 -94 249 0 249 0
277 24 l28 24 3 207 3 206 22 -7 c208 -67 332 -104 348 -104 19 0 20 7 17 265
-2 146 -1 265 1 265 2 0 45 -40 95 -88 50 -48 111 -97 136 -109 312 -148 456
-204 558 -218 l52 -7 0 509 0 508 -79 28 c-133 47 -257 131 -540 365 -97 81
-410 291 -501 337 l-70 35 -905 0 -905 0 0 -109z m1365 -351 c3 -5 4 -10 1
-10 -3 0 -8 5 -11 10 -3 6 -4 10 -1 10 3 0 8 -4 11 -10z m75 -46 c0 -2 -9 0
-20 6 -11 6 -20 13 -20 16 0 2 9 0 20 -6 11 -6 20 -13 20 -16z m70 -40 c0 -2
-9 0 -20 6 -11 6 -20 13 -20 16 0 2 9 0 20 -6 11 -6 20 -13 20 -16z m135 -103
c46 -40 22 -24 -59 37 -31 23 -56 45 -56 47 0 7 67 -42 115 -84z m76 -58 c13
-16 12 -17 -3 -4 -10 7 -18 15 -18 17 0 8 8 3 21 -13z m249 13 c0 -3 -5 -8
-12 -12 -7 -4 -8 -3 -4 4 7 12 16 16 16 8z m-209 -43 c13 -16 12 -17 -3 -4
-10 7 -18 15 -18 17 0 8 8 3 21 -13z m54 -43 c10 -11 16 -20 13 -20 -3 0 -13
9 -23 20 -10 11 -16 20 -13 20 3 0 13 -9 23 -20z m77 -33 c-7 -8 -9 -17 -5
-20 3 -4 2 -7 -4 -7 -5 0 -18 10 -29 22 -18 22 -18 22 0 8 17 -13 20 -13 30 2
5 9 12 15 15 13 2 -3 -1 -11 -7 -18z m-187 -82 c132 -108 267 -240 337 -329
l71 -90 -22 -15 c-13 -9 -89 -53 -170 -99 l-146 -82 -3 172 c-1 95 -7 177 -11
181 -5 5 -100 9 -210 8 -111 -1 -201 0 -201 3 0 2 25 16 55 30 30 13 77 46
104 71 50 46 111 150 111 187 0 28 13 22 85 -37z m220 25 c10 -11 16 -20 13
-20 -3 0 -13 9 -23 20 -10 11 -16 20 -13 20 3 0 13 -9 23 -20z m205 -195 c96
-96 173 -175 170 -175 -3 0 -84 79 -180 175 -96 96 -173 175 -170 175 3 0 84
-79 180 -175z m201 -192 c13 -16 12 -17 -3 -4 -10 7 -18 15 -18 17 0 8 8 3 21
-13z m44 -33 c3 -5 4 -10 1 -10 -3 0 -8 5 -11 10 -3 6 -4 10 -1 10 3 0 8 -4
11 -10z m40 -30 c3 -5 4 -10 1 -10 -3 0 -8 5 -11 10 -3 6 -4 10 -1 10 3 0 8
-4 11 -10z m30 -30 c3 -5 4 -10 1 -10 -3 0 -8 5 -11 10 -3 6 -4 10 -1 10 3 0
8 -4 11 -10z m130 -90 c3 -5 2 -10 -4 -10 -5 0 -13 5 -16 10 -3 6 -2 10 4 10
5 0 13 -4 16 -10z"/>
<path d="M2970 577 c-14 -6 -110 -52 -215 -103 l-190 -93 -275 -45 c-274 -45
-485 -76 -654 -96 -134 -16 -392 -66 -466 -89 -36 -12 -128 -35 -205 -52 -77
-17 -176 -45 -220 -62 l-80 -32 1164 -3 c640 -1 1166 0 1168 1 2 2 2 134 1
294 l-3 290 -25 -10z"/>
</g>
</svg>
