<?xml version="1.0" standalone="no"?>
<!DOCTYPE svg PUBLIC "-//W3C//DTD SVG 20010904//EN"
 "http://www.w3.org/TR/2001/REC-SVG-20010904/DTD/svg10.dtd">
<svg version="1.0" xmlns="http://www.w3.org/2000/svg"
 width="300.000000pt" height="300.000000pt" viewBox="0 0 300.000000 300.000000"
 preserveAspectRatio="xMidYMid meet">
<metadata>
Created by potrace 1.10, written by Peter Selinger 2001-2011
</metadata>
<g transform="translate(0.000000,300.000000) scale(0.100000,-0.100000)"
fill="#000000" stroke="none">
<path d="M0 2826 l0 -174 86 -7 c47 -4 109 -13 137 -19 l52 -11 -46 -27 c-270
-158 -249 -565 36 -700 l70 -33 -107 -3 c-60 -1 -108 -6 -108 -10 1 -4 7 -34
15 -67 9 -36 15 -111 15 -186 l0 -125 80 -162 c44 -89 80 -168 80 -176 0 -8
-17 -23 -37 -33 -31 -15 -39 -24 -41 -51 -2 -18 2 -40 9 -48 10 -12 6 -21 -20
-48 l-33 -34 34 -11 c32 -12 32 -13 14 -27 -11 -7 -23 -14 -28 -14 -10 0 -30
-78 -23 -90 8 -13 575 -14 575 -1 0 5 -7 28 -15 51 -19 54 -20 116 -1 123 9 4
37 -21 76 -69 34 -41 65 -74 69 -74 16 0 53 238 49 317 -3 78 -3 78 23 81 22
3 29 -2 38 -29 14 -40 14 -114 1 -195 -6 -37 -7 -72 -1 -85 8 -22 11 -18 40
45 35 78 39 130 16 219 -19 73 -19 96 0 103 40 16 74 -76 84 -231 l7 -100 12
53 c7 29 12 83 12 120 0 127 35 124 52 -4 9 -73 3 -145 -19 -213 -3 -12 -1
-11 11 4 16 19 24 41 46 133 7 27 16 42 27 42 13 0 15 -11 11 -73 -4 -61 -11
-84 -39 -133 -61 -104 -83 -94 201 -94 249 0 249 0 277 24 l28 24 3 207 3 206
22 -7 c206 -66 332 -104 348 -104 17 0 19 8 19 75 0 41 2 75 4 75 3 0 24 -13
48 -28 70 -46 159 -81 280 -108 181 -42 305 -52 447 -38 l61 7 0 509 c0 398
-3 509 -12 512 -7 2 -44 8 -83 14 -65 10 -239 75 -362 134 -75 37 -208 132
-289 207 -84 79 -307 278 -349 313 -37 30 -201 142 -273 186 l-52 32 -790 0
-790 0 0 -174z m1629 -563 c-95 -98 -179 -182 -186 -186 -7 -4 -13 -12 -13
-17 0 -5 66 -78 146 -162 80 -84 160 -171 177 -193 16 -22 1 -8 -33 30 -103
113 -283 299 -434 449 -78 77 -109 112 -71 79 39 -34 99 -91 135 -127 35 -36
68 -66 72 -66 4 0 89 83 189 185 100 102 184 185 187 185 3 0 -73 -80 -169
-177z m-554 117 c3 -5 4 -10 1 -10 -3 0 -8 5 -11 10 -3 6 -4 10 -1 10 3 0 8
-4 11 -10z m46 -37 c13 -16 12 -17 -3 -4 -17 13 -22 21 -14 21 2 0 10 -8 17
-17z m-277 -99 c1 -90 4 -105 33 -166 39 -83 108 -154 188 -194 l60 -29 -148
-3 c-81 -1 -213 -1 -295 0 l-147 3 58 27 c161 76 243 209 236 384 -3 49 0 83
5 81 6 -2 10 -48 10 -103z m666 -364 l35 -29 -99 -1 c-55 0 -97 3 -93 6 9 9
100 52 112 53 6 1 26 -12 45 -29z m306 -252 l29 -33 -32 29 c-31 28 -38 36
-30 36 2 0 16 -15 33 -32z m34 -89 c0 -5 -18 -18 -40 -29 l-40 -20 0 61 0 61
40 -32 c22 -17 40 -36 40 -41z m80 -34 c47 -47 82 -85 80 -85 -3 0 -43 38 -90
85 -47 47 -82 85 -80 85 3 0 43 -38 90 -85z m120 -130 c13 -14 21 -25 18 -25
-2 0 -15 11 -28 25 -13 14 -21 25 -18 25 2 0 15 -11 28 -25z m87 -52 c-4 -3
-10 -3 -14 0 -3 4 0 7 7 7 7 0 10 -3 7 -7z m63 -23 c8 -5 11 -10 5 -10 -5 0
-17 5 -25 10 -8 5 -10 10 -5 10 6 0 17 -5 25 -10z m77 -37 c-4 -3 -10 -3 -14
0 -3 4 0 7 7 7 7 0 10 -3 7 -7z m188 -64 c16 -6 14 -8 -10 -6 -16 1 -41 7 -55
15 -24 13 -24 13 10 6 19 -3 44 -10 55 -15z m62 -16 c-4 -3 -10 -3 -14 0 -3 4
0 7 7 7 7 0 10 -3 7 -7z m70 -10 c-4 -3 -10 -3 -14 0 -3 4 0 7 7 7 7 0 10 -3
7 -7z m120 -10 c-4 -3 -10 -3 -14 0 -3 4 0 7 7 7 7 0 10 -3 7 -7z"/>
<path d="M2840 581 c-201 -88 -423 -196 -526 -256 -60 -35 -138 -70 -225 -98
-85 -28 -200 -78 -314 -136 l-179 -91 447 0 447 0 79 40 c43 21 85 45 92 52 8
8 39 24 69 37 30 13 103 48 163 78 l107 54 0 190 c0 145 -3 189 -12 189 -7 0
-74 -27 -148 -59z"/>
</g>
</svg>
