<?xml version="1.0" standalone="no"?>
<!DOCTYPE svg PUBLIC "-//W3C//DTD SVG 20010904//EN"
 "http://www.w3.org/TR/2001/REC-SVG-20010904/DTD/svg10.dtd">
<svg version="1.0" xmlns="http://www.w3.org/2000/svg"
 width="300.000000pt" height="300.000000pt" viewBox="0 0 300.000000 300.000000"
 preserveAspectRatio="xMidYMid meet">
<metadata>
Created by potrace 1.10, written by Peter Selinger 2001-2011
</metadata>
<g transform="translate(0.000000,300.000000) scale(0.100000,-0.100000)"
fill="#000000" stroke="none">
<path d="M0 2830 l0 -170 38 0 c37 0 220 -35 229 -43 2 -3 -16 -16 -40 -30
-96 -57 -174 -176 -186 -286 -20 -179 66 -338 224 -413 l70 -33 -107 -3 c-60
-1 -108 -6 -108 -10 1 -4 7 -34 15 -67 9 -36 15 -111 15 -186 l0 -125 80 -162
c44 -89 80 -168 80 -176 0 -8 -17 -23 -37 -33 -31 -15 -39 -24 -41 -51 -2 -18
2 -40 9 -48 10 -12 6 -21 -20 -48 l-33 -34 34 -11 c32 -12 32 -13 14 -27 -11
-7 -23 -14 -28 -14 -10 0 -30 -78 -23 -90 8 -13 575 -14 575 -1 0 5 -7 28 -15
51 -19 54 -20 116 -1 123 9 4 37 -21 76 -69 34 -41 65 -74 69 -74 16 0 53 238
49 317 -3 78 -3 78 23 81 22 3 29 -2 38 -29 14 -40 14 -114 1 -195 -6 -37 -7
-72 -1 -85 8 -22 11 -18 40 45 35 78 39 130 16 219 -19 73 -19 96 0 103 40 16
74 -76 84 -231 l7 -100 12 53 c7 29 12 83 12 120 0 127 35 124 52 -4 9 -73 3
-145 -19 -213 -3 -12 -1 -11 11 4 16 19 24 41 46 133 7 27 16 42 27 42 13 0
15 -11 11 -73 -4 -61 -11 -84 -39 -133 -61 -104 -83 -94 201 -94 249 0 249 0
277 24 l28 24 3 207 3 206 22 -7 c206 -66 332 -104 348 -104 18 0 19 8 19 114
l0 115 58 -29 c32 -15 107 -45 167 -64 61 -20 133 -44 160 -54 39 -13 94 -18
253 -20 l202 -3 0 450 0 451 -27 6 c-90 19 -269 66 -338 88 -69 22 -92 36
-164 98 -45 40 -113 95 -150 121 -85 62 -199 170 -210 200 -21 56 -280 264
-479 385 l-52 32 -790 0 -790 0 0 -170z m1115 -440 c3 -6 -1 -7 -9 -4 -18 7
-21 14 -7 14 6 0 13 -4 16 -10z m765 6 c0 -3 -5 -8 -12 -12 -7 -4 -8 -3 -4 4
7 12 16 16 16 8z m-735 -26 c3 -5 4 -10 1 -10 -3 0 -8 5 -11 10 -3 6 -4 10 -1
10 3 0 8 -4 11 -10z m-301 -126 c1 -90 4 -105 33 -166 39 -83 108 -154 188
-194 l60 -29 -148 -3 c-81 -1 -213 -1 -295 0 l-147 3 58 27 c161 76 243 209
236 384 -3 49 0 83 5 81 6 -2 10 -48 10 -103z m351 96 c3 -5 4 -10 1 -10 -3 0
-8 5 -11 10 -3 6 -4 10 -1 10 3 0 8 -4 11 -10z m645 6 c0 -2 -8 -10 -17 -17
-16 -13 -17 -12 -4 4 13 16 21 21 21 13z m-370 -220 c63 -58 209 -190 324
-293 116 -104 224 -201 240 -217 l31 -28 -35 27 c-70 54 -338 292 -440 391
-134 129 -239 219 -318 273 -34 23 -62 44 -62 47 0 15 161 -109 260 -200z
m330 171 c0 -2 -10 -12 -22 -23 l-23 -19 19 23 c18 21 26 27 26 19z m-50 -61
c0 -2 -8 -10 -17 -17 -16 -13 -17 -12 -4 4 13 16 21 21 21 13z m-85 -101 c-32
-36 -60 -65 -63 -65 -6 0 19 31 72 88 61 64 55 50 -9 -23z m-160 -247 c19 -13
35 -26 35 -30 0 -5 -43 -8 -97 -8 -53 0 -94 3 -90 6 8 8 99 52 110 53 4 1 23
-9 42 -21z m350 -296 c19 -17 35 -34 35 -37 0 -2 -27 -18 -60 -35 l-60 -30 0
86 0 85 25 -19 c13 -11 40 -33 60 -50z m655 14 c0 -3 -5 -8 -12 -12 -7 -4 -8
-3 -4 4 7 12 16 16 16 8z m-419 -33 c13 -16 12 -17 -3 -4 -10 7 -18 15 -18 17
0 8 8 3 21 -13z m65 -55 l29 -33 -32 29 c-31 28 -38 36 -30 36 2 0 16 -15 33
-32z m64 -53 c13 -14 21 -25 18 -25 -2 0 -15 11 -28 25 -13 14 -21 25 -18 25
2 0 15 -11 28 -25z m51 -42 c13 -16 12 -17 -3 -4 -17 13 -22 21 -14 21 2 0 10
-8 17 -17z m34 -23 c3 -5 4 -10 1 -10 -3 0 -8 5 -11 10 -3 6 -4 10 -1 10 3 0
8 -4 11 -10z m60 -38 c-3 -3 -11 0 -18 7 -9 10 -8 11 6 5 10 -3 15 -9 12 -12z
m155 -62 c8 -5 11 -10 5 -10 -5 0 -17 5 -25 10 -8 5 -10 10 -5 10 6 0 17 -5
25 -10z m47 -17 c-4 -3 -10 -3 -14 0 -3 4 0 7 7 7 7 0 10 -3 7 -7z m40 -10
c-4 -3 -10 -3 -14 0 -3 4 0 7 7 7 7 0 10 -3 7 -7z"/>
<path d="M2934 692 c-64 -47 -244 -141 -349 -182 -193 -77 -537 -138 -975
-175 -123 -10 -350 -45 -430 -65 -160 -41 -406 -139 -520 -208 l-95 -57 330
-3 c202 -2 355 1 395 7 36 6 135 18 220 26 85 9 180 21 210 27 30 6 71 10 90
9 66 -3 374 29 467 49 137 29 385 113 535 181 73 34 145 66 161 72 l27 11 0
173 c0 95 -3 173 -7 172 -5 0 -31 -17 -59 -37z"/>
</g>
</svg>
