<?xml version="1.0" standalone="no"?>
<!DOCTYPE svg PUBLIC "-//W3C//DTD SVG 20010904//EN"
 "http://www.w3.org/TR/2001/REC-SVG-20010904/DTD/svg10.dtd">
<svg version="1.0" xmlns="http://www.w3.org/2000/svg"
 width="300.000000pt" height="300.000000pt" viewBox="0 0 300.000000 300.000000"
 preserveAspectRatio="xMidYMid meet">
<metadata>
Created by potrace 1.10, written by Peter Selinger 2001-2011
</metadata>
<g transform="translate(0.000000,300.000000) scale(0.100000,-0.100000)"
fill="#000000" stroke="none">
<path d="M0 2920 l0 -81 118 8 c233 16 390 6 672 -43 317 -55 544 -128 915
-296 206 -93 373 -201 447 -289 195 -233 428 -481 503 -534 58 -41 247 -155
313 -189 l32 -17 0 528 0 528 -159 127 c-192 155 -288 215 -448 285 l-123 53
-1135 0 -1135 0 0 -80z m2430 -790 c0 -5 -2 -10 -4 -10 -3 0 -8 5 -11 10 -3 6
-1 10 4 10 6 0 11 -4 11 -10z"/>
<path d="M366 2640 c-75 -13 -167 -63 -220 -120 -185 -198 -125 -516 119 -632
l70 -33 -107 -3 c-60 -1 -108 -6 -108 -10 1 -4 7 -34 15 -67 9 -36 15 -111 15
-186 l0 -125 80 -162 c44 -89 80 -168 80 -176 0 -8 -17 -23 -37 -33 -31 -15
-39 -24 -41 -51 -2 -18 2 -40 9 -48 10 -12 6 -21 -20 -48 l-33 -34 34 -11 c32
-12 32 -13 14 -27 -11 -7 -23 -14 -28 -14 -10 0 -30 -78 -23 -90 8 -12 575
-14 575 -2 0 5 -7 29 -16 54 -17 50 -16 119 2 125 6 2 39 -30 73 -72 34 -41
66 -75 70 -75 16 0 53 238 49 317 -3 78 -3 78 23 81 22 3 29 -2 38 -29 14 -40
14 -114 1 -195 -6 -37 -7 -72 -1 -85 8 -22 11 -18 40 45 35 78 39 130 16 219
-19 73 -19 96 0 103 40 16 74 -76 84 -231 l7 -100 12 53 c7 29 12 83 12 120 0
127 35 124 52 -4 9 -73 3 -145 -19 -213 -3 -12 -1 -11 11 4 16 19 24 41 46
133 7 27 16 42 27 42 13 0 15 -11 11 -73 -4 -61 -11 -84 -39 -133 -61 -104
-83 -94 201 -94 249 0 249 0 277 24 l28 24 3 207 3 206 22 -7 c208 -67 332
-104 349 -104 19 0 20 5 16 280 -3 321 -2 317 -78 272 -25 -14 -103 -59 -175
-99 l-130 -73 -3 172 c-1 95 -7 177 -11 181 -5 5 -100 9 -210 8 -111 -1 -201
0 -201 2 0 2 29 18 64 36 76 37 147 110 184 189 24 50 27 69 27 157 l0 100
-45 78 c-73 127 -141 185 -250 213 -93 24 -175 14 -266 -31 -86 -42 -144 -102
-187 -193 -29 -61 -32 -76 -32 -162 0 -86 3 -101 32 -162 39 -83 108 -154 188
-194 l60 -29 -147 -3 c-82 -1 -214 -1 -295 0 l-148 3 58 27 c112 53 185 133
222 247 25 78 18 207 -17 283 -75 163 -256 258 -432 228z"/>
<path d="M2725 460 l-160 -79 -275 -45 c-151 -25 -365 -57 -475 -71 -266 -35
-573 -89 -665 -119 -41 -13 -131 -36 -200 -51 -110 -24 -280 -79 -280 -91 0
-2 524 -4 1165 -4 l1165 0 -1 153 0 152 -57 118 -57 117 -160 -80z"/>
</g>
</svg>
