<?xml version="1.0" standalone="no"?>
<!DOCTYPE svg PUBLIC "-//W3C//DTD SVG 20010904//EN"
 "http://www.w3.org/TR/2001/REC-SVG-20010904/DTD/svg10.dtd">
<svg version="1.0" xmlns="http://www.w3.org/2000/svg"
 width="300.000000pt" height="300.000000pt" viewBox="0 0 300.000000 300.000000"
 preserveAspectRatio="xMidYMid meet">
<metadata>
Created by potrace 1.10, written by Peter Selinger 2001-2011
</metadata>
<g transform="translate(0.000000,300.000000) scale(0.100000,-0.100000)"
fill="#000000" stroke="none">
<path d="M0 2880 l0 -121 22 12 c93 50 575 67 796 28 289 -50 532 -130 878
-287 217 -98 381 -204 456 -293 195 -233 428 -481 503 -534 58 -41 247 -155
313 -189 l32 -17 0 609 0 609 -63 51 c-117 95 -247 162 -441 228 l-70 24
-1213 0 -1213 0 0 -120z"/>
<path d="M360 2639 c-73 -14 -163 -64 -214 -119 -185 -198 -125 -516 119 -632
l70 -33 -107 -3 c-60 -1 -108 -6 -108 -10 1 -4 7 -34 15 -67 9 -36 15 -111 15
-186 l0 -125 80 -162 c44 -89 80 -168 80 -176 0 -8 -17 -23 -37 -33 -31 -15
-39 -24 -41 -51 -2 -18 2 -40 9 -48 10 -12 6 -21 -20 -48 l-33 -34 34 -11 c32
-12 32 -13 14 -27 -11 -7 -23 -14 -28 -14 -10 0 -30 -78 -23 -90 8 -12 575
-14 575 -2 0 5 -7 29 -16 54 -17 50 -16 119 2 125 6 2 39 -30 73 -72 34 -41
66 -75 70 -75 16 0 53 238 49 317 -3 78 -3 78 23 81 22 3 29 -2 38 -29 14 -40
14 -114 1 -195 -6 -35 -6 -72 -2 -85 8 -20 12 -15 40 46 36 77 40 129 17 218
-19 73 -19 96 0 103 40 16 74 -76 84 -231 l7 -100 12 53 c7 29 12 83 12 120 0
125 35 124 51 -2 9 -71 2 -151 -17 -214 -5 -13 -2 -13 10 3 16 19 24 41 46
133 7 27 16 42 27 42 13 0 15 -11 11 -73 -4 -61 -11 -84 -39 -133 -61 -104
-83 -94 201 -94 249 0 249 0 277 24 l28 24 3 207 3 206 22 -7 c206 -66 332
-104 348 -104 18 0 19 10 19 239 0 254 -5 327 -25 334 -6 3 -54 -20 -106 -50
-52 -31 -131 -76 -176 -100 l-83 -45 0 176 c0 115 -4 177 -11 182 -6 3 -100 6
-210 5 -109 -1 -199 0 -199 2 0 2 29 18 64 36 76 37 147 110 184 189 24 50 27
69 27 157 l0 100 -45 78 c-73 127 -141 185 -250 213 -93 24 -175 14 -266 -31
-86 -42 -144 -102 -187 -193 -29 -61 -32 -76 -32 -162 0 -86 3 -101 32 -162
39 -83 108 -154 188 -194 l60 -29 -148 -3 c-81 -1 -213 -1 -295 0 l-147 3 58
27 c112 53 185 133 222 247 26 78 18 207 -17 283 -53 115 -169 204 -297 228
-61 11 -78 11 -141 -1z"/>
<path d="M1614 400 c-52 -55 -166 -126 -359 -223 -158 -79 -213 -102 -325
-132 -74 -20 -136 -38 -139 -40 -2 -3 326 -5 730 -5 l735 0 37 38 c20 21 37
43 37 48 0 14 -251 220 -305 250 -89 51 -249 94 -346 94 -27 0 -43 -8 -65 -30z
m63 -17 c-4 -3 -10 -3 -14 0 -3 4 0 7 7 7 7 0 10 -3 7 -7z"/>
</g>
</svg>
