<?xml version="1.0" standalone="no"?>
<!DOCTYPE svg PUBLIC "-//W3C//DTD SVG 20010904//EN"
 "http://www.w3.org/TR/2001/REC-SVG-20010904/DTD/svg10.dtd">
<svg version="1.0" xmlns="http://www.w3.org/2000/svg"
 width="300.000000pt" height="300.000000pt" viewBox="0 0 300.000000 300.000000"
 preserveAspectRatio="xMidYMid meet">
<metadata>
Created by potrace 1.10, written by Peter Selinger 2001-2011
</metadata>
<g transform="translate(0.000000,300.000000) scale(0.100000,-0.100000)"
fill="#000000" stroke="none">
<path d="M0 2826 l0 -174 86 -7 c47 -4 109 -13 137 -19 l52 -11 -46 -27 c-270
-158 -249 -565 36 -700 l70 -33 -107 -3 c-60 -1 -108 -6 -108 -10 1 -4 7 -34
15 -67 9 -36 15 -111 15 -186 l0 -125 80 -162 c44 -89 80 -168 80 -176 0 -8
-17 -23 -37 -33 -31 -15 -39 -24 -41 -51 -2 -18 2 -40 9 -48 10 -12 6 -21 -20
-48 l-33 -34 34 -11 c32 -12 32 -13 14 -27 -11 -7 -23 -14 -28 -14 -10 0 -30
-78 -23 -90 8 -13 575 -14 575 -1 0 5 -7 28 -15 51 -19 54 -20 116 -1 123 9 4
37 -21 76 -69 34 -41 65 -74 69 -74 16 0 53 238 49 317 -3 78 -3 78 23 81 22
3 29 -2 38 -29 14 -40 14 -114 1 -195 -6 -37 -7 -72 -1 -85 8 -22 11 -18 40
45 35 78 39 130 16 219 -19 73 -19 96 0 103 40 16 74 -76 84 -231 l7 -100 12
53 c7 29 12 83 12 120 0 127 35 124 52 -4 9 -73 3 -145 -19 -213 -3 -12 -1
-11 11 4 16 19 24 41 46 133 7 27 16 42 27 42 13 0 15 -11 11 -73 -4 -61 -11
-84 -39 -133 -61 -104 -83 -94 201 -94 249 0 249 0 277 24 l28 24 3 207 3 206
22 -7 c206 -66 332 -104 348 -104 17 0 19 8 19 75 0 41 3 75 7 75 3 0 14 -6
22 -14 26 -23 151 -82 211 -99 194 -55 359 -75 513 -62 l87 7 0 514 0 514 -37
0 c-75 0 -243 57 -415 140 -80 39 -211 132 -294 209 -84 79 -307 278 -349 313
-37 30 -201 142 -273 186 l-52 32 -790 0 -790 0 0 -174z m1290 -180 c0 -2 -8
-10 -17 -17 -16 -13 -17 -12 -4 4 13 16 21 21 21 13z m-200 -206 c0 -5 -4 -10
-9 -10 -6 0 -13 5 -16 10 -3 6 1 10 9 10 9 0 16 -4 16 -10z m55 -40 c3 -5 4
-10 1 -10 -3 0 -8 5 -11 10 -3 6 -4 10 -1 10 3 0 8 -4 11 -10z m271 -250 c50
-52 145 -153 211 -225 67 -71 152 -160 189 -196 38 -36 101 -96 139 -134 69
-66 69 -66 -20 11 -97 86 -283 275 -415 422 -45 51 -144 152 -219 224 -78 75
-102 101 -56 61 44 -38 121 -111 171 -163z m-572 95 c1 -90 4 -107 33 -167 39
-83 108 -154 188 -194 l60 -29 -148 -3 c-81 -1 -213 -1 -295 0 l-147 3 58 27
c161 76 243 209 236 384 -2 46 0 83 5 81 5 -2 9 -48 10 -102z m1416 -229 c0
-2 -8 -10 -17 -17 -16 -13 -17 -12 -4 4 13 16 21 21 21 13z m-50 -70 c0 -3 -5
-8 -12 -12 -7 -4 -8 -3 -4 4 7 12 16 16 16 8z m-20 -30 c0 -3 -5 -8 -12 -12
-7 -4 -8 -3 -4 4 7 12 16 16 16 8z m-690 -31 c13 -14 21 -27 18 -30 -3 -3 -43
-5 -89 -3 l-84 3 55 27 c69 33 72 33 100 3z m670 1 c0 -3 -5 -8 -12 -12 -7 -4
-8 -3 -4 4 7 12 16 16 16 8z m-20 -30 c0 -3 -5 -8 -12 -12 -7 -4 -8 -3 -4 4 7
12 16 16 16 8z m-20 -30 c0 -3 -5 -8 -12 -12 -7 -4 -8 -3 -4 4 7 12 16 16 16
8z m-20 -30 c0 -3 -5 -8 -12 -12 -7 -4 -8 -3 -4 4 7 12 16 16 16 8z m-40 -66
c-6 -11 -13 -20 -16 -20 -2 0 0 9 6 20 6 11 13 20 16 20 2 0 0 -9 -6 -20z
m-20 -34 c0 -2 -8 -10 -17 -17 -16 -13 -17 -12 -4 4 13 16 21 21 21 13z m-46
-61 c-9 -14 -18 -25 -21 -25 -5 0 5 18 20 38 17 22 18 13 1 -13z m-197 -77
c30 -28 29 -34 -7 -53 l-30 -16 0 46 c0 25 3 45 7 45 4 0 17 -10 30 -22z m244
-45 c13 -16 12 -17 -3 -4 -10 7 -18 15 -18 17 0 8 8 3 21 -13z m40 -30 c13
-16 12 -17 -3 -4 -10 7 -18 15 -18 17 0 8 8 3 21 -13z m59 -48 c19 -19 32 -35
29 -35 -3 0 -20 16 -39 35 -19 19 -32 35 -29 35 3 0 20 -16 39 -35z m65 -55
c10 -11 16 -20 13 -20 -3 0 -13 9 -23 20 -10 11 -16 20 -13 20 3 0 13 -9 23
-20z m-150 -20 c3 -5 4 -10 1 -10 -3 0 -8 5 -11 10 -3 6 -4 10 -1 10 3 0 8 -4
11 -10z m206 -27 c13 -16 12 -17 -3 -4 -10 7 -18 15 -18 17 0 8 8 3 21 -13z
m64 -41 c-3 -3 -11 0 -18 7 -9 10 -8 11 6 5 10 -3 15 -9 12 -12z m32 -9 c-4
-3 -10 -3 -14 0 -3 4 0 7 7 7 7 0 10 -3 7 -7z m30 -10 c-4 -3 -10 -3 -14 0 -3
4 0 7 7 7 7 0 10 -3 7 -7z m60 -20 c-4 -3 -10 -3 -14 0 -3 4 0 7 7 7 7 0 10
-3 7 -7z m90 -20 c-4 -3 -10 -3 -14 0 -3 4 0 7 7 7 7 0 10 -3 7 -7z m60 -10
c-4 -3 -10 -3 -14 0 -3 4 0 7 7 7 7 0 10 -3 7 -7z"/>
<path d="M2965 721 c-16 -10 -93 -58 -170 -106 -270 -170 -407 -243 -560 -300
-55 -20 -113 -43 -130 -50 -16 -7 -91 -34 -165 -60 -74 -26 -199 -79 -278
-117 -79 -37 -167 -72 -195 -77 -33 -6 122 -9 429 -10 l481 -1 114 54 c65 31
155 85 209 125 52 39 141 96 198 127 l102 56 0 189 c0 104 -1 189 -2 189 -2 0
-16 -9 -33 -19z"/>
</g>
</svg>
