<?xml version="1.0" standalone="no"?>
<!DOCTYPE svg PUBLIC "-//W3C//DTD SVG 20010904//EN"
 "http://www.w3.org/TR/2001/REC-SVG-20010904/DTD/svg10.dtd">
<svg version="1.0" xmlns="http://www.w3.org/2000/svg"
 width="300.000000pt" height="300.000000pt" viewBox="0 0 300.000000 300.000000"
 preserveAspectRatio="xMidYMid meet">
<metadata>
Created by potrace 1.10, written by Peter Selinger 2001-2011
</metadata>
<g transform="translate(0.000000,300.000000) scale(0.100000,-0.100000)"
fill="#000000" stroke="none">
<path d="M366 2640 c-121 -21 -241 -114 -294 -228 -24 -51 -27 -69 -27 -167 0
-101 2 -115 29 -168 37 -78 117 -156 189 -187 31 -14 57 -28 57 -32 0 -5 -45
-8 -100 -8 -55 0 -100 -3 -100 -7 1 -5 7 -35 15 -68 9 -36 15 -111 15 -185 l0
-126 80 -163 c44 -89 80 -169 80 -176 0 -7 -17 -22 -37 -32 -31 -15 -39 -24
-41 -51 -2 -18 2 -40 9 -48 10 -12 6 -21 -20 -48 l-33 -34 34 -11 c32 -12 32
-13 14 -27 -11 -7 -23 -14 -28 -14 -10 0 -30 -78 -23 -90 8 -13 575 -14 575
-1 0 5 -7 28 -15 51 -19 54 -20 116 -1 123 9 4 37 -21 77 -69 34 -41 65 -74
68 -74 16 0 53 240 49 317 -3 78 -3 78 23 81 22 3 29 -2 38 -29 14 -40 14
-110 0 -199 -16 -104 0 -119 39 -37 37 75 41 130 17 220 -19 73 -19 96 0 103
40 16 74 -76 84 -231 l7 -100 12 53 c7 29 12 83 12 120 0 127 35 124 52 -4 9
-73 3 -145 -19 -213 -3 -12 -1 -11 11 4 16 19 24 41 46 133 7 27 16 42 26 42
14 0 16 -12 12 -72 -3 -61 -9 -83 -38 -133 -62 -106 -84 -95 200 -95 249 0
249 0 277 24 l28 24 3 207 3 206 22 -7 c208 -67 332 -104 349 -104 19 0 20 5
16 280 -3 315 -4 317 -68 278 -19 -12 -98 -57 -175 -100 l-140 -78 -3 172 c-1
95 -7 177 -11 181 -5 5 -100 9 -210 8 -111 -1 -201 0 -201 2 0 2 29 18 64 36
76 37 147 110 184 189 24 50 27 69 27 157 0 95 -2 103 -32 156 -18 31 -33 59
-33 61 0 3 45 -16 101 -43 55 -27 106 -49 113 -49 9 0 16 18 20 48 4 26 9 59
12 74 5 24 2 27 -28 32 -262 41 -297 49 -356 77 -128 63 -252 62 -375 -3 -280
-149 -269 -562 18 -704 l60 -29 -147 -3 c-82 -1 -214 -1 -295 0 l-148 3 58 27
c112 53 185 133 222 247 25 78 18 207 -17 283 -75 163 -256 258 -432 228z
m1191 -127 c-4 -3 -7 0 -7 7 0 7 3 10 7 7 3 -4 3 -10 0 -14z m10 -30 c-4 -3
-7 0 -7 7 0 7 3 10 7 7 3 -4 3 -10 0 -14z m190 -10 c-4 -3 -10 -3 -14 0 -3 4
0 7 7 7 7 0 10 -3 7 -7z"/>
</g>
</svg>
