<?xml version="1.0" standalone="no"?>
<!DOCTYPE svg PUBLIC "-//W3C//DTD SVG 20010904//EN"
 "http://www.w3.org/TR/2001/REC-SVG-20010904/DTD/svg10.dtd">
<svg version="1.0" xmlns="http://www.w3.org/2000/svg"
 width="300.000000pt" height="300.000000pt" viewBox="0 0 300.000000 300.000000"
 preserveAspectRatio="xMidYMid meet">
<metadata>
Created by potrace 1.10, written by Peter Selinger 2001-2011
</metadata>
<g transform="translate(0.000000,300.000000) scale(0.100000,-0.100000)"
fill="#000000" stroke="none">
<path d="M366 2640 c-121 -21 -241 -114 -294 -228 -24 -51 -27 -69 -27 -167 0
-101 2 -115 29 -168 37 -78 117 -156 189 -187 31 -14 57 -28 57 -32 0 -5 -45
-8 -100 -8 -55 0 -100 -3 -100 -7 1 -5 7 -35 15 -68 9 -36 15 -111 15 -185 l0
-126 80 -163 c44 -89 80 -169 80 -176 0 -7 -17 -22 -37 -32 -31 -15 -39 -24
-41 -51 -2 -18 2 -40 9 -48 10 -12 6 -21 -20 -48 l-33 -34 34 -11 c32 -12 32
-13 14 -27 -11 -7 -23 -14 -28 -14 -10 0 -30 -78 -23 -90 8 -13 575 -14 575
-1 0 5 -7 28 -15 51 -19 54 -20 116 -1 123 9 4 37 -21 77 -69 34 -41 65 -74
68 -74 16 0 53 240 49 317 -3 78 -3 78 23 81 22 3 29 -2 38 -29 14 -40 14
-110 0 -199 -7 -45 -7 -75 -1 -86 8 -15 15 -6 41 49 35 76 39 130 16 220 -19
73 -19 96 0 103 40 16 74 -76 84 -231 l7 -100 12 53 c7 29 12 83 12 120 0 127
35 124 52 -4 9 -73 3 -145 -19 -213 -3 -12 -1 -11 11 4 16 19 24 41 46 133 7
27 16 42 26 42 14 0 16 -12 12 -72 -3 -61 -9 -83 -38 -133 -62 -106 -84 -95
200 -95 249 0 249 0 277 24 l28 24 3 207 3 206 22 -7 c206 -66 332 -104 348
-104 18 0 19 10 19 239 0 254 -5 327 -25 334 -6 3 -54 -20 -106 -50 -52 -31
-131 -76 -176 -100 l-83 -45 0 176 c0 115 -4 177 -11 182 -6 3 -100 6 -210 5
-109 -1 -199 0 -199 2 0 2 29 18 64 36 77 38 148 110 183 189 34 74 43 189 19
261 -9 27 -16 52 -16 55 0 10 26 6 37 -5 14 -14 158 -65 253 -90 114 -30 309
-30 415 1 73 21 92 22 219 16 125 -6 148 -10 215 -38 42 -17 85 -37 95 -44 17
-12 26 -5 90 63 88 95 93 121 26 140 -170 50 -400 62 -645 34 -99 -11 -207
-21 -240 -22 -67 -1 -453 27 -500 37 -16 4 -50 26 -74 50 -115 114 -289 134
-444 52 -280 -149 -269 -562 18 -704 l60 -29 -147 -3 c-82 -1 -214 -1 -295 0
l-148 3 58 27 c112 53 185 133 222 247 25 78 18 207 -17 283 -75 163 -256 258
-432 228z m1261 -197 c-4 -3 -7 0 -7 7 0 7 3 10 7 7 3 -4 3 -10 0 -14z m18
-23 c3 -5 1 -10 -4 -10 -6 0 -11 5 -11 10 0 6 2 10 4 10 3 0 8 -4 11 -10z
m185 0 c0 -5 -2 -10 -4 -10 -3 0 -8 5 -11 10 -3 6 -1 10 4 10 6 0 11 -4 11
-10z m395 -1 c-22 -4 -60 -7 -85 -7 l-45 1 50 7 c28 4 66 7 85 7 l35 1 -40 -9z
m22 -46 c-4 -3 -7 0 -7 7 0 7 3 10 7 7 3 -4 3 -10 0 -14z m150 -29 c-3 -3 -12
-4 -19 -1 -8 3 -5 6 6 6 11 1 17 -2 13 -5z m-450 -11 c-4 -3 -10 -3 -14 0 -3
4 0 7 7 7 7 0 10 -3 7 -7z m343 3 c0 -3 -26 -10 -57 -16 -32 -7 -63 -15 -70
-17 -7 -3 -13 -1 -13 4 0 5 21 14 48 19 59 12 92 15 92 10z"/>
</g>
</svg>
