<?xml version="1.0" standalone="no"?>
<!DOCTYPE svg PUBLIC "-//W3C//DTD SVG 20010904//EN"
 "http://www.w3.org/TR/2001/REC-SVG-20010904/DTD/svg10.dtd">
<svg version="1.0" xmlns="http://www.w3.org/2000/svg"
 width="300.000000pt" height="300.000000pt" viewBox="0 0 300.000000 300.000000"
 preserveAspectRatio="xMidYMid meet">
<metadata>
Created by potrace 1.10, written by Peter Selinger 2001-2011
</metadata>
<g transform="translate(0.000000,300.000000) scale(0.100000,-0.100000)"
fill="#000000" stroke="none">
<path d="M366 2640 c-121 -21 -241 -114 -294 -228 -24 -51 -27 -69 -27 -167 0
-101 2 -115 29 -168 37 -78 117 -156 189 -187 31 -14 57 -28 57 -32 0 -5 -45
-8 -100 -8 -55 0 -100 -3 -100 -7 1 -5 7 -35 15 -68 9 -36 15 -111 15 -185 l0
-126 80 -163 c44 -89 80 -169 80 -176 0 -7 -17 -22 -37 -32 -31 -15 -39 -24
-41 -51 -2 -18 2 -40 9 -48 10 -12 6 -21 -20 -48 l-33 -34 34 -11 c32 -12 32
-13 14 -27 -11 -7 -23 -14 -28 -14 -10 0 -30 -78 -23 -90 8 -13 575 -14 575
-1 0 5 -7 28 -15 51 -19 54 -20 116 -1 123 9 4 37 -21 77 -69 34 -41 65 -74
68 -74 16 0 53 240 49 317 -3 78 -3 78 23 81 22 3 29 -2 38 -29 14 -40 14
-110 0 -199 -16 -104 0 -119 39 -37 37 75 41 130 17 220 -19 73 -19 96 0 103
40 16 74 -76 84 -231 l7 -100 12 53 c7 29 12 83 12 120 0 127 35 124 52 -4 9
-73 3 -145 -19 -213 -3 -12 -1 -11 11 4 16 19 24 41 46 133 7 27 16 42 26 42
14 0 16 -12 12 -72 -3 -61 -9 -83 -38 -133 -62 -106 -84 -95 200 -95 249 0
249 0 277 24 l28 24 3 207 3 206 22 -7 c208 -67 332 -104 349 -104 19 0 20 5
16 280 -3 315 -4 317 -68 278 -19 -12 -98 -57 -175 -100 l-140 -78 -3 172 c-1
95 -7 177 -11 181 -5 5 -100 9 -210 8 -111 -1 -201 0 -201 2 0 2 29 18 64 36
76 37 147 110 184 189 24 50 27 69 27 157 0 77 -4 108 -18 133 -10 17 -15 32
-11 32 4 0 34 -17 68 -38 161 -101 268 -130 521 -142 190 -9 196 -9 279 -39
33 -12 65 -21 73 -21 24 0 153 -91 216 -154 104 -102 151 -177 195 -311 22
-66 42 -129 45 -140 3 -11 5 115 6 280 l0 300 -43 33 c-156 117 -440 197 -801
226 -187 16 -227 21 -254 35 -9 5 -87 28 -175 50 -203 54 -238 66 -289 101
-46 33 -139 60 -202 60 -97 0 -219 -55 -286 -128 -181 -196 -123 -510 116
-628 l60 -29 -147 -3 c-82 -1 -214 -1 -295 0 l-148 3 58 27 c112 53 185 133
222 247 25 78 18 207 -17 283 -75 163 -256 258 -432 228z m1201 -147 c-4 -3
-10 -3 -14 0 -3 4 0 7 7 7 7 0 10 -3 7 -7z m-3 -29 c3 -8 2 -12 -4 -9 -6 3
-10 10 -10 16 0 14 7 11 14 -7z m191 -34 c3 -5 2 -10 -4 -10 -5 0 -13 5 -16
10 -3 6 -2 10 4 10 5 0 13 -4 16 -10z m112 -27 c-4 -3 -10 -3 -14 0 -3 4 0 7
7 7 7 0 10 -3 7 -7z m250 -38 c23 0 46 -5 50 -9 4 -5 -25 -6 -65 -4 -40 3 -79
11 -85 18 -10 10 -5 11 23 5 19 -5 54 -9 77 -10z m160 -12 c-4 -3 -10 -3 -14
0 -3 4 0 7 7 7 7 0 10 -3 7 -7z m43 3 c0 -3 -4 -8 -10 -11 -5 -3 -10 -1 -10 4
0 6 5 11 10 11 6 0 10 -2 10 -4z m-473 -33 c-4 -3 -10 -3 -14 0 -3 4 0 7 7 7
7 0 10 -3 7 -7z m310 -10 c-4 -3 -7 0 -7 7 0 7 3 10 7 7 3 -4 3 -10 0 -14z
m130 -40 c-4 -3 -7 0 -7 7 0 7 3 10 7 7 3 -4 3 -10 0 -14z m-107 -15 c0 -5
-39 -8 -87 -7 -49 1 -78 4 -65 7 32 9 152 9 152 0z m130 -14 c0 -2 -9 -4 -20
-4 -11 0 -20 4 -20 9 0 5 9 7 20 4 11 -3 20 -7 20 -9z m67 -11 c-4 -3 -10 -3
-14 0 -3 4 0 7 7 7 7 0 10 -3 7 -7z m70 -9 c-3 -3 -12 -4 -19 -1 -8 3 -5 6 6
6 11 1 17 -2 13 -5z m60 -21 c-4 -3 -10 -3 -14 0 -3 4 0 7 7 7 7 0 10 -3 7 -7z
m370 -9 c-3 -3 -12 -4 -19 -1 -8 3 -5 6 6 6 11 1 17 -2 13 -5z m-300 -11 c-4
-3 -10 -3 -14 0 -3 4 0 7 7 7 7 0 10 -3 7 -7z m373 -34 l25 -21 -33 19 c-19
10 -39 24 -45 32 -10 12 -9 12 8 3 11 -6 31 -21 45 -33z m-155 -119 c10 -11
16 -20 13 -20 -3 0 -13 9 -23 20 -10 11 -16 20 -13 20 3 0 13 -9 23 -20z m83
-105 c-3 -3 -9 2 -12 12 -6 14 -5 15 5 6 7 -7 10 -15 7 -18z"/>
<path d="M2957 1213 c-57 -199 -97 -345 -97 -357 0 -11 39 -25 113 -42 l27 -6
0 266 c0 146 -1 266 -3 266 -2 0 -19 -57 -40 -127z"/>
</g>
</svg>
