<?xml version="1.0" encoding="utf-8"?>
<!-- Generator: Adobe Illustrator 26.1.0, SVG Export Plug-In . SVG Version: 6.00 Build 0)  -->
<svg version="1.1" id="Layer_1" xmlns="http://www.w3.org/2000/svg" xmlns:xlink="http://www.w3.org/1999/xlink" x="0px" y="0px"
	 viewBox="0 0 222.03 193.22" style="enable-background:new 0 0 222.03 193.22;" xml:space="preserve">
<path d="M66.33,83.07c8.54,0,15.52,2.89,18.84,8.64c4.95,8.57,0.3,21.01-10.51,31.24c7.13-2.53,14.11-3.79,20.42-3.79
	c10.69,0,19.42,3.62,23.57,10.81c8.11,14.05-4.34,36.44-27.82,49.99L39.46,90.99C48.62,85.71,58.19,83.07,66.33,83.07"/>
<g>
	<g>
		<path d="M90.85,87.58c4,6.93,3.8,15.51-0.13,24.1c1.34-0.09,2.67-0.14,3.97-0.14c13.58,0,24.38,5.22,29.63,14.31
			c8.6,14.89,0.45,35.83-18.65,51.46h99.41L110.59,13.65l-36.2,62.69C81.77,78,87.56,81.89,90.85,87.58z"/>
		<polygon points="48.64,120.95 16.1,177.31 81.18,177.31 		"/>
	</g>
</g>
</svg>
