<?xml version="1.0" standalone="no"?>
<!DOCTYPE svg PUBLIC "-//W3C//DTD SVG 20010904//EN"
 "http://www.w3.org/TR/2001/REC-SVG-20010904/DTD/svg10.dtd">
<svg version="1.0" xmlns="http://www.w3.org/2000/svg"
 width="888.000000pt" height="888.000000pt" viewBox="0 0 888.000000 888.000000"
 preserveAspectRatio="xMidYMid meet">
<metadata>
Created by potrace 1.14, written by Peter Selinger 2001-2017
</metadata>
<g transform="translate(0.000000,888.000000) scale(0.100000,-0.100000)"
fill="#000000" stroke="none">
<path d="M4395 7704 c-15 -27 -36 -61 -46 -76 -11 -15 -19 -29 -19 -32 0 -3
-39 -71 -86 -153 -106 -181 -120 -206 -152 -263 -14 -25 -34 -57 -44 -72 -11
-16 -16 -28 -11 -28 4 0 3 -4 -3 -8 -5 -4 -22 -27 -35 -52 -31 -55 -49 -87
-143 -248 -40 -70 -79 -139 -87 -152 -8 -14 -18 -28 -22 -31 -5 -3 -8 -9 -8
-13 1 -3 -5 -16 -12 -29 -7 -12 -27 -45 -44 -74 -17 -28 -34 -61 -38 -72 -3
-12 -11 -21 -16 -21 -5 0 -9 -4 -9 -9 0 -8 -80 -150 -169 -299 -17 -29 -31
-57 -31 -62 0 -4 -3 -10 -7 -12 -5 -1 -15 -16 -24 -33 -29 -55 -142 -250 -148
-255 -3 -3 -7 -12 -9 -20 -2 -8 -9 -22 -16 -30 -7 -8 -32 -51 -56 -95 -24 -44
-47 -81 -52 -83 -4 -2 -8 -8 -8 -14 0 -5 -9 -23 -21 -39 -11 -16 -17 -29 -12
-29 4 0 3 -4 -3 -8 -12 -8 -87 -142 -82 -147 2 -1 35 -10 73 -20 39 -10 74
-22 80 -27 5 -4 17 -8 27 -8 10 0 18 -4 18 -10 0 -5 6 -10 13 -10 47 0 218
-112 304 -199 92 -94 181 -237 208 -336 5 -16 9 -32 10 -35 4 -12 15 -58 21
-85 9 -39 13 -307 5 -320 -3 -5 -7 -19 -8 -30 -10 -71 -53 -213 -97 -315 -6
-14 12 -16 136 -16 244 0 391 -21 583 -86 123 -42 301 -133 313 -160 2 -5 8
-8 13 -8 28 0 197 -172 258 -262 28 -43 49 -78 45 -78 -4 0 0 -8 8 -17 12 -15
60 -122 64 -143 0 -3 6 -25 13 -50 7 -25 16 -58 18 -75 3 -16 6 -34 7 -40 1
-5 4 -14 7 -20 7 -13 3 -302 -5 -340 -7 -33 -14 -69 -20 -100 -13 -70 -57
-203 -96 -293 -51 -116 -137 -274 -152 -280 -4 -2 -8 -8 -8 -14 0 -10 -52 -89
-74 -110 -7 -8 -17 -24 -20 -36 -4 -12 -11 -22 -15 -22 -4 0 -25 -24 -46 -52
-83 -110 -304 -334 -409 -416 -16 -12 -25 -22 -20 -23 37 -4 3948 -3 3955 1 4
3 -1 19 -12 35 -11 17 -27 46 -36 65 -9 19 -19 37 -22 40 -4 3 -17 25 -30 50
-13 25 -29 52 -35 60 -11 14 -21 31 -71 122 -11 20 -41 73 -67 117 -27 44 -48
85 -48 91 0 5 -4 10 -10 10 -5 0 -10 4 -10 10 0 5 -14 33 -31 62 -33 55 -54
91 -90 156 -12 20 -43 74 -70 120 -27 45 -49 85 -49 89 0 4 -6 14 -14 22 -12
15 -45 72 -92 161 -11 19 -21 37 -24 40 -10 10 -90 153 -90 161 0 5 -4 9 -10
9 -5 0 -10 4 -10 9 0 5 -50 96 -111 203 -62 106 -117 202 -123 213 -6 11 -13
22 -16 25 -3 3 -14 23 -25 45 -11 22 -23 42 -27 43 -5 2 -8 8 -8 12 0 5 -20
43 -45 83 -25 41 -45 80 -45 86 0 6 -4 11 -9 11 -5 0 -11 8 -15 18 -7 19 -39
77 -79 139 -15 24 -27 45 -27 47 0 2 -20 39 -45 80 -25 42 -45 81 -45 86 0 6
-4 10 -10 10 -5 0 -10 6 -10 14 0 7 -7 19 -15 26 -8 7 -12 16 -9 21 3 5 0 9
-5 9 -6 0 -11 5 -11 10 0 6 -11 27 -23 48 -13 20 -35 57 -49 82 -42 76 -178
311 -229 396 -27 45 -49 85 -49 90 0 4 -6 15 -14 23 -8 9 -27 40 -42 69 -16
29 -33 61 -39 70 -5 9 -34 60 -64 112 -30 52 -61 103 -69 113 -8 9 -11 17 -6
17 5 0 5 4 -1 8 -9 6 -23 29 -59 97 -6 11 -14 22 -17 25 -3 3 -8 10 -10 15 -2
6 -49 88 -104 183 -55 95 -111 194 -125 220 -14 26 -28 49 -32 50 -5 2 -8 7
-8 12 0 5 -22 45 -50 89 -27 45 -46 81 -43 81 3 0 -1 8 -9 18 -8 9 -66 107
-129 217 -62 110 -116 202 -119 205 -3 3 -14 21 -24 40 -21 39 -73 131 -129
228 -21 35 -37 68 -37 73 0 5 -4 9 -10 9 -5 0 -10 7 -10 15 0 8 -4 15 -8 15
-4 0 -14 16 -21 35 -7 19 -17 35 -22 35 -5 0 -9 4 -9 9 0 6 -17 38 -37 73 -21
35 -37 66 -36 70 1 3 -4 12 -12 18 -8 7 -15 19 -15 26 0 8 -4 14 -8 14 -4 0
-13 12 -20 28 -18 40 -76 140 -90 154 -7 7 -12 15 -12 19 0 5 -28 56 -63 116
-35 59 -66 115 -70 123 -4 8 -16 29 -27 45 -11 17 -23 37 -27 45 -4 8 -26 48
-50 88 -24 41 -43 78 -43 83 0 5 -5 9 -11 9 -5 0 -7 5 -4 10 3 6 1 10 -4 10
-6 0 -11 7 -11 15 0 8 -4 15 -10 15 -5 0 -10 9 -10 20 0 11 -4 20 -9 20 -5 0
-13 10 -17 22 -3 12 -11 26 -16 32 -5 6 -31 49 -57 95 l-49 84 -27 -49z"/>
<path d="M2557 4974 c-1 -1 -37 -4 -79 -7 -42 -3 -80 -7 -85 -10 -4 -3 -28 -8
-53 -11 -25 -3 -60 -10 -78 -15 -18 -5 -36 -10 -40 -11 -44 -6 -260 -75 -322
-102 -25 -11 -61 -27 -80 -35 -52 -23 -196 -96 -227 -116 -9 -6 -3 -24 23 -70
19 -34 40 -73 47 -87 6 -14 14 -27 17 -30 4 -3 40 -63 81 -135 41 -71 79 -138
84 -147 6 -9 20 -34 32 -55 76 -136 113 -199 120 -209 9 -12 26 -41 61 -104
36 -65 50 -90 78 -135 13 -22 27 -47 31 -55 4 -8 24 -43 45 -78 21 -34 38 -67
38 -72 0 -6 5 -10 10 -10 6 0 10 -5 10 -10 0 -9 64 -122 220 -390 81 -139 328
-567 352 -610 14 -25 58 -101 98 -170 40 -68 81 -139 91 -157 38 -66 57 -99
88 -151 17 -29 31 -57 31 -62 0 -4 3 -10 8 -12 4 -2 14 -16 23 -33 32 -61 212
-371 230 -396 10 -14 16 -28 13 -31 -2 -3 2 -11 11 -18 8 -7 15 -19 15 -26 0
-8 5 -14 10 -14 6 0 10 -6 10 -14 0 -7 9 -25 21 -40 11 -14 17 -26 12 -26 -4
0 -3 -4 3 -8 6 -4 23 -29 39 -57 77 -140 96 -166 103 -145 2 6 8 10 12 10 11
0 140 80 158 98 8 7 28 20 45 29 18 9 34 19 37 22 3 4 23 20 45 37 126 93 210
166 341 298 186 189 330 386 425 583 118 247 158 490 114 703 -3 14 -7 35 -9
46 -7 34 -48 127 -64 147 -8 9 -12 17 -8 17 21 0 -116 159 -180 210 -104 81
-285 163 -413 185 -19 3 -37 7 -40 9 -3 2 -31 7 -62 10 -31 4 -67 9 -80 12
-29 6 -314 6 -349 0 -14 -3 -47 -7 -75 -11 -80 -9 -229 -35 -245 -42 -18 -8
-15 -7 -65 -18 -22 -5 -42 -9 -45 -10 -3 -1 -25 -7 -50 -14 -25 -6 -52 -14
-60 -17 -8 -3 -16 -5 -17 -5 -2 0 -20 -7 -40 -15 l-38 -16 60 63 c33 35 65 68
71 73 24 23 132 163 149 194 11 17 24 32 29 32 5 0 7 3 3 6 -3 4 7 25 22 48
37 53 92 172 119 256 101 315 32 592 -191 756 -78 58 -131 84 -232 117 -125
40 -181 49 -338 51 -64 2 -118 1 -120 0z"/>
<path d="M1927 3428 c-10 -18 -34 -60 -54 -93 -20 -33 -46 -78 -58 -100 -12
-22 -45 -78 -72 -125 -28 -47 -111 -191 -185 -320 -74 -129 -146 -253 -159
-275 -14 -22 -36 -61 -49 -87 -14 -27 -28 -48 -32 -48 -5 0 -8 -5 -8 -11 0 -6
-10 -25 -22 -42 -13 -18 -22 -33 -20 -35 1 -1 -4 -12 -12 -25 -42 -68 -116
-200 -116 -207 0 -5 -4 -10 -8 -12 -4 -1 -21 -28 -36 -58 -16 -30 -31 -57 -35
-60 -4 -3 -12 -16 -18 -30 -7 -14 -26 -47 -43 -75 -16 -27 -37 -63 -45 -80 -9
-16 -24 -43 -35 -60 -11 -16 -25 -42 -31 -57 -6 -16 -15 -28 -20 -28 -5 0 -9
-9 -9 -20 0 -11 -4 -20 -9 -20 -5 0 -13 -10 -17 -22 -3 -12 -11 -26 -16 -32
-13 -16 -168 -287 -168 -295 0 -3 584 -6 1298 -6 l1299 0 -26 45 c-15 25 -38
66 -51 93 -14 26 -28 47 -32 47 -5 0 -8 4 -8 9 0 5 -32 65 -71 133 -39 67 -83
143 -97 168 -28 50 -228 396 -242 420 -11 18 -51 88 -109 190 -24 41 -50 86
-59 100 -9 14 -17 27 -17 30 0 3 -8 16 -17 30 -21 33 -150 258 -192 335 -6 11
-13 22 -16 25 -3 3 -10 14 -16 25 -38 69 -66 118 -88 154 -14 22 -26 42 -26
45 0 2 -17 33 -38 67 -22 35 -50 84 -64 109 -71 126 -83 148 -108 188 l-26 42
-17 -32z"/>
</g>
</svg>
